<svg width="3414" height="3414" viewBox="0 0 3414 3414" fill="none" xmlns="http://www.w3.org/2000/svg">
<path opacity="0.0344828" d="M409.967 1593.78C387.663 1584.8 391.088 1552.22 414.771 1548.07L1255.15 1400.98C1268.92 1398.57 1278.29 1385.67 1276.33 1371.83L1156.53 527.126C1153.16 503.322 1183.09 489.995 1198.52 508.432L1746.1 1162.68C1755.07 1173.4 1770.93 1175.06 1781.93 1166.44L2453.57 640.343C2472.49 625.517 2499 644.776 2490.75 667.358L2197.95 1468.7C2193.15 1481.82 2199.63 1496.39 2212.6 1501.61L3004.04 1820.22C3026.34 1829.19 3022.91 1861.78 2999.23 1865.93L2158.85 2013.02C2145.08 2015.43 2135.71 2028.33 2137.67 2042.17L2257.47 2886.87C2260.85 2910.68 2230.91 2924 2215.48 2905.57L1667.9 2251.32C1658.93 2240.6 1643.08 2238.94 1632.07 2247.56L960.435 2773.65C941.508 2788.48 915 2769.22 923.252 2746.64L1216.06 1945.3C1220.85 1932.17 1214.37 1917.61 1201.4 1912.39L409.967 1593.78Z" stroke="white" stroke-opacity="0.3" stroke-width="2"/>
<path opacity="0.0689655" d="M434.499 1528.72C412.696 1518.59 417.822 1486.23 441.689 1483.33L1276.85 1381.85C1290.72 1380.16 1300.75 1367.77 1299.52 1353.85L1225.14 515.845C1223.02 491.896 1253.61 480.154 1268.05 499.373L1773.51 1171.9C1781.91 1183.07 1797.66 1185.57 1809.1 1177.54L2497.64 694.121C2517.32 680.306 2542.78 700.927 2533.36 723.046L2203.67 1497.05C2198.19 1509.91 2203.9 1524.8 2216.58 1530.69L2979.5 1885.28C3001.3 1895.41 2996.18 1927.77 2972.31 1930.67L2137.15 2032.15C2123.28 2033.84 2113.25 2046.23 2114.48 2060.15L2188.86 2898.16C2190.98 2922.11 2160.39 2933.85 2145.95 2914.63L1640.49 2242.1C1632.09 2230.93 1616.34 2228.44 1604.9 2236.47L916.357 2719.88C896.679 2733.7 871.216 2713.08 880.638 2690.96L1210.33 1916.95C1215.81 1904.09 1210.1 1889.21 1197.42 1883.31L434.499 1528.72Z" stroke="white" stroke-opacity="0.3" stroke-width="2"/>
<path opacity="0.103448" d="M462.241 1465.91C440.998 1454.65 447.811 1422.6 471.797 1420.95L1299.29 1364.13C1313.23 1363.18 1323.9 1351.33 1323.4 1337.36L1293.41 508.462C1292.54 484.435 1323.7 474.31 1337.12 494.259L1800.07 1182.48C1807.87 1194.08 1823.47 1197.39 1835.31 1189.97L2538.17 749.55C2558.54 736.784 2582.89 758.708 2572.32 780.304L2207.78 1525.34C2201.64 1537.9 2206.57 1553.06 2218.92 1559.61L2951.76 1948.09C2973 1959.35 2966.19 1991.4 2942.2 1993.04L2114.71 2049.86C2100.77 2050.82 2090.1 2062.67 2090.6 2076.64L2120.59 2905.54C2121.46 2929.56 2090.3 2939.69 2076.88 2919.74L1613.93 2231.52C1606.12 2219.92 1590.53 2216.61 1578.69 2224.03L875.832 2664.45C855.459 2677.21 831.11 2655.29 841.676 2633.69L1206.21 1888.65C1212.36 1876.1 1207.43 1860.94 1195.08 1854.39L462.241 1465.91Z" stroke="white" stroke-opacity="0.3" stroke-width="2"/>
<path opacity="0.137931" d="M493.025 1405.51C472.401 1393.15 480.881 1361.5 504.921 1361.11L1322.4 1347.87C1336.37 1347.64 1347.64 1336.37 1347.87 1322.39L1361.11 504.919C1361.5 480.88 1393.15 472.399 1405.51 493.023L1825.71 1194.36C1832.9 1206.35 1848.3 1210.47 1860.51 1203.68L2575.09 806.412C2596.1 794.729 2619.27 817.898 2607.59 838.911L2210.32 1553.49C2203.53 1565.7 2207.65 1581.1 2219.64 1588.29L2920.98 2008.49C2941.6 2020.85 2933.12 2052.5 2909.08 2052.89L2091.61 2066.13C2077.63 2066.36 2066.36 2077.63 2066.13 2091.6L2052.89 2909.08C2052.5 2933.12 2020.85 2941.6 2008.49 2920.98L1588.29 2219.64C1581.1 2207.65 1565.7 2203.53 1553.49 2210.32L838.912 2607.59C817.899 2619.27 794.731 2596.1 806.413 2575.09L1203.68 1860.51C1210.47 1848.3 1206.35 1832.9 1194.36 1825.71L493.025 1405.51Z" stroke="white" stroke-opacity="0.3" stroke-width="2"/>
<path opacity="0.172414" d="M526.673 1347.65C506.723 1334.23 516.848 1303.07 540.875 1303.94L1346.07 1333.07C1360.04 1333.58 1371.89 1322.91 1372.85 1308.96L1428.04 505.133C1429.69 481.147 1461.74 474.335 1473 495.577L1850.37 1207.46C1856.91 1219.81 1872.08 1224.74 1884.63 1218.6L2608.37 864.481C2629.96 853.915 2651.89 878.264 2639.12 898.637L2211.3 1581.39C2203.87 1593.24 2207.19 1608.83 2218.79 1616.63L2887.33 2066.35C2907.28 2079.77 2897.15 2110.93 2873.12 2110.06L2067.93 2080.93C2053.96 2080.42 2042.11 2091.09 2041.15 2105.04L1985.96 2908.87C1984.31 2932.85 1952.26 2939.67 1941 2918.42L1563.63 2206.54C1557.08 2194.19 1541.92 2189.26 1529.37 2195.4L805.631 2549.52C784.035 2560.09 762.111 2535.74 774.877 2515.36L1202.7 1832.61C1210.12 1820.76 1206.81 1805.17 1195.21 1797.37L526.673 1347.65Z" stroke="white" stroke-opacity="0.3" stroke-width="2"/>
<path opacity="0.206897" d="M563.006 1292.48C543.786 1278.03 555.528 1247.44 579.477 1249.57L1370.23 1319.75C1384.15 1320.99 1396.55 1310.95 1398.23 1297.08L1493.99 509.011C1496.89 485.143 1529.25 480.018 1539.39 501.821L1873.98 1221.73C1879.87 1234.4 1894.76 1240.12 1907.62 1234.64L2637.98 923.534C2660.1 914.111 2680.72 939.575 2666.91 959.252L2210.75 1608.98C2202.72 1620.41 2205.21 1636.16 2216.39 1644.56L2850.99 2121.52C2870.21 2135.97 2858.47 2166.56 2834.52 2164.43L2043.77 2094.25C2029.84 2093.01 2017.45 2103.05 2015.77 2116.92L1920.01 2904.99C1917.11 2928.86 1884.75 2933.98 1874.61 2912.18L1540.02 2192.27C1534.13 2179.6 1519.24 2173.88 1506.38 2179.36L776.015 2490.47C753.896 2499.89 733.276 2474.43 747.091 2454.75L1203.25 1805.02C1211.28 1793.59 1208.79 1777.84 1197.61 1769.44L563.006 1292.48Z" stroke="white" stroke-opacity="0.3" stroke-width="2"/>
<path opacity="0.241379" d="M601.835 1240.1C583.398 1224.67 596.725 1194.74 620.529 1198.12L1394.79 1307.92C1408.63 1309.88 1421.52 1300.51 1423.93 1286.75L1558.76 516.45C1562.91 492.767 1595.49 489.343 1604.47 511.646L1896.5 1237.08C1901.72 1250.04 1916.29 1256.53 1929.42 1251.73L2663.93 983.346C2686.51 975.094 2705.77 1001.6 2690.94 1020.53L2208.72 1636.15C2200.1 1647.16 2201.76 1663.01 2212.48 1671.98L2812.16 2173.89C2830.6 2189.33 2817.28 2219.26 2793.47 2215.88L2019.21 2106.08C2005.37 2104.11 1992.48 2113.49 1990.07 2127.25L1855.24 2897.55C1851.09 2921.23 1818.51 2924.66 1809.53 2902.35L1517.5 2176.92C1512.28 2163.96 1497.71 2157.47 1484.58 2162.27L750.074 2430.65C727.492 2438.9 708.233 2412.4 723.059 2393.47L1205.28 1777.84C1213.9 1766.84 1212.24 1750.98 1201.52 1742.01L601.835 1240.1Z" stroke="white" stroke-opacity="0.3" stroke-width="2"/>
<path opacity="0.275862" d="M642.968 1190.64C625.364 1174.27 640.239 1145.08 663.834 1149.69L1419.65 1297.59C1433.36 1300.28 1446.73 1291.59 1449.86 1277.97L1622.16 527.346C1627.54 503.912 1660.26 502.197 1668.06 524.94L1917.88 1253.44C1922.42 1266.66 1936.62 1273.9 1949.99 1269.8L2686.2 1043.7C2709.18 1036.65 2727.03 1064.13 2711.23 1082.25L2205.24 1662.85C2196.06 1673.39 2196.89 1689.31 2207.12 1698.83L2771.03 2223.36C2788.64 2239.74 2773.76 2268.93 2750.17 2264.32L1994.35 2116.42C1980.64 2113.73 1967.27 2122.42 1964.14 2136.04L1791.84 2886.66C1786.46 2910.1 1753.74 2911.81 1745.94 2889.07L1496.12 2160.57C1491.58 2147.35 1477.38 2140.11 1464.02 2144.21L727.803 2370.3C704.82 2377.36 686.975 2349.88 702.771 2331.76L1208.76 1751.15C1217.95 1740.62 1217.11 1724.7 1206.88 1715.18L642.968 1190.64Z" stroke="white" stroke-opacity="0.3" stroke-width="2"/>
<path opacity="0.310345" d="M686.207 1144.18C669.484 1126.91 685.867 1098.53 709.188 1104.38L1444.72 1288.75C1458.28 1292.15 1472.09 1284.17 1475.92 1270.73L1684.02 541.558C1690.62 518.439 1723.38 518.439 1729.98 541.558L1938.08 1270.73C1941.91 1284.17 1955.72 1292.15 1969.28 1288.75L2704.81 1104.38C2728.13 1098.53 2744.52 1126.91 2727.79 1144.18L2200.36 1688.99C2190.64 1699.03 2190.63 1714.97 2200.36 1725.01L2727.79 2269.82C2744.52 2287.09 2728.13 2315.47 2704.81 2309.62L1969.28 2125.25C1955.72 2121.85 1941.91 2129.83 1938.08 2143.27L1729.98 2872.44C1723.38 2895.56 1690.62 2895.56 1684.02 2872.44L1475.92 2143.27C1472.09 2129.83 1458.28 2121.85 1444.72 2125.25L709.188 2309.62C685.867 2315.47 669.484 2287.09 686.208 2269.82L1213.64 1725.01C1223.37 1714.97 1223.37 1699.03 1213.64 1688.99L686.207 1144.18Z" stroke="white" stroke-opacity="0.3" stroke-width="2"/>
<path opacity="0.344828" d="M731.353 1100.81C715.557 1082.68 733.402 1055.2 756.385 1062.26L1469.93 1281.39C1483.29 1285.5 1497.49 1278.26 1502.03 1265.04L1744.15 558.969C1751.95 536.227 1784.67 537.941 1790.05 561.374L1957.05 1288.88C1960.18 1302.51 1973.55 1311.19 1987.26 1308.51L2719.8 1165.16C2743.4 1160.54 2758.27 1189.74 2740.67 1206.11L2194.12 1714.49C2183.89 1724.01 2183.05 1739.93 2192.24 1750.47L2682.65 2313.19C2698.44 2331.32 2680.6 2358.8 2657.61 2351.74L1944.07 2132.61C1930.71 2128.5 1916.51 2135.74 1911.97 2148.96L1669.85 2855.03C1662.05 2877.77 1629.33 2876.06 1623.95 2852.63L1456.95 2125.12C1453.82 2111.49 1440.45 2102.81 1426.74 2105.49L694.2 2248.84C670.604 2253.46 655.729 2224.26 673.333 2207.89L1219.88 1699.51C1230.11 1689.99 1230.95 1674.07 1221.76 1663.53L731.353 1100.81Z" stroke="white" stroke-opacity="0.3" stroke-width="2"/>
<path opacity="0.37931" d="M778.201 1060.6C763.375 1041.67 782.634 1015.16 805.216 1023.41L1495.17 1275.52C1508.3 1280.31 1522.86 1273.83 1528.08 1260.86L1802.4 579.435C1811.38 557.132 1843.97 560.557 1848.11 584.24L1974.76 1307.81C1977.17 1321.58 1990.07 1330.95 2003.91 1328.99L2731.2 1225.84C2755.01 1222.47 2768.33 1252.4 2749.9 1267.83L2186.59 1739.3C2175.87 1748.27 2174.21 1764.12 2182.82 1775.13L2635.8 2353.41C2650.62 2372.34 2631.37 2398.84 2608.78 2390.59L1918.83 2138.49C1905.7 2133.69 1891.13 2140.17 1885.91 2153.14L1611.59 2834.57C1602.62 2856.87 1570.03 2853.45 1565.89 2829.76L1439.24 2106.19C1436.83 2092.43 1423.93 2083.05 1410.09 2085.02L682.796 2188.16C658.992 2191.54 645.665 2161.61 664.102 2146.17L1227.41 1674.71C1238.13 1665.74 1239.79 1649.88 1231.17 1638.88L778.201 1060.6Z" stroke="white" stroke-opacity="0.3" stroke-width="2"/>
<path opacity="0.413793" d="M826.548 1023.6C812.733 1003.92 833.352 978.456 855.472 987.878L1520.38 1271.1C1533.24 1276.58 1548.12 1270.86 1554.01 1258.19L1858.62 602.805C1868.75 581.002 1901.12 586.128 1904.02 609.995L1991.19 1327.43C1992.88 1341.31 2005.27 1351.34 2019.19 1350.1L2739.07 1286.21C2763.02 1284.09 2774.76 1314.67 2755.54 1329.12L2177.81 1763.33C2166.64 1771.73 2164.15 1787.48 2172.18 1798.92L2587.45 2390.41C2601.27 2410.09 2580.65 2435.55 2558.53 2426.13L1893.62 2142.9C1880.76 2137.43 1865.88 2143.14 1859.99 2155.82L1555.38 2811.2C1545.25 2833 1512.88 2827.88 1509.98 2804.01L1422.81 2086.57C1421.12 2072.7 1408.73 2062.67 1394.81 2063.9L674.927 2127.79C650.978 2129.92 639.237 2099.33 658.456 2084.89L1236.19 1650.67C1247.36 1642.27 1249.85 1626.53 1241.82 1615.09L826.548 1023.6Z" stroke="white" stroke-opacity="0.3" stroke-width="2"/>
<path opacity="0.448276" d="M876.185 989.854C863.419 969.48 885.343 945.131 906.939 955.698L1545.46 1268.12C1558.01 1274.26 1573.18 1269.33 1579.72 1256.99L1912.66 628.919C1923.92 607.676 1955.97 614.489 1957.62 638.475L2006.31 1347.66C2007.27 1361.6 2019.12 1372.27 2033.09 1371.77L2743.48 1346.07C2767.5 1345.2 2777.63 1376.36 2757.68 1389.78L2167.85 1786.54C2156.26 1794.34 2152.94 1809.94 2160.36 1821.78L2537.82 2424.15C2550.58 2444.52 2528.66 2468.87 2507.06 2458.3L1868.54 2145.88C1855.99 2139.74 1840.82 2144.67 1834.28 2157.02L1501.34 2785.08C1490.08 2806.32 1458.03 2799.51 1456.38 2775.52L1407.69 2066.34C1406.73 2052.4 1394.88 2041.73 1380.92 2042.23L670.525 2067.93C646.498 2068.8 636.373 2037.64 656.322 2024.22L1246.15 1627.46C1257.74 1619.66 1261.06 1604.06 1253.64 1592.22L876.185 989.854Z" stroke="white" stroke-opacity="0.3" stroke-width="2"/>
<path opacity="0.482759" d="M926.905 959.403C915.222 938.39 938.391 915.221 959.404 926.904L1570.33 1266.55C1582.55 1273.34 1597.95 1269.22 1605.13 1257.23L1964.39 657.618C1976.75 636.994 2008.4 645.475 2008.79 669.514L2020.11 1368.42C2020.33 1382.39 2031.61 1393.67 2045.58 1393.89L2744.49 1405.21C2768.53 1405.6 2777.01 1437.25 2756.38 1449.61L2156.77 1808.87C2144.78 1816.05 2140.66 1831.45 2147.45 1843.67L2487.1 2454.6C2498.78 2475.61 2475.61 2498.78 2454.6 2487.1L1843.67 2147.45C1831.45 2140.66 1816.05 2144.78 1808.87 2156.77L1449.61 2756.38C1437.25 2777 1405.61 2768.52 1405.22 2744.48L1393.89 2045.58C1393.67 2031.61 1382.39 2020.33 1368.42 2020.11L669.515 2008.78C645.476 2008.39 636.995 1976.75 657.62 1964.39L1257.23 1605.13C1269.22 1597.95 1273.34 1582.55 1266.55 1570.33L926.905 959.403Z" stroke="white" stroke-opacity="0.3" stroke-width="2"/>
<path opacity="0.517241" d="M978.503 932.266C967.936 910.669 992.285 888.745 1012.66 901.512L1594.93 1266.37C1606.77 1273.79 1622.36 1270.48 1630.17 1258.88L2013.69 688.735C2027.11 668.786 2058.27 678.911 2057.4 702.938L2032.56 1389.63C2032.06 1403.59 2042.72 1415.44 2056.67 1416.4L2742.19 1463.47C2766.18 1465.12 2772.99 1497.17 2751.75 1508.43L2144.64 1830.26C2132.29 1836.8 2127.36 1851.97 2133.5 1864.52L2435.5 2481.74C2446.07 2503.33 2421.72 2525.26 2401.34 2512.49L1819.08 2147.63C1807.23 2140.21 1791.64 2143.53 1783.84 2155.12L1400.31 2725.27C1386.89 2745.22 1355.73 2735.09 1356.6 2711.06L1381.44 2024.38C1381.95 2010.41 1371.28 1998.56 1357.33 1997.6L671.811 1950.53C647.825 1948.88 641.013 1916.84 662.255 1905.57L1269.36 1583.75C1281.71 1577.2 1286.64 1562.04 1280.5 1549.48L978.503 932.266Z" stroke="white" stroke-opacity="0.3" stroke-width="2"/>
<path opacity="0.551724" d="M1030.77 908.443C1021.35 886.323 1046.81 865.703 1066.49 879.518L1619.16 1267.54C1630.6 1275.57 1646.35 1273.07 1654.74 1261.9L2060.46 722.089C2074.9 702.87 2105.49 714.611 2103.37 738.56L2043.67 1411.19C2042.43 1425.12 2052.47 1437.51 2066.34 1439.19L2736.69 1520.65C2760.55 1523.55 2765.68 1555.91 2743.88 1566.04L2131.51 1850.66C2118.84 1856.55 2113.12 1871.43 2118.6 1884.29L2383.23 2505.56C2392.65 2527.68 2367.19 2548.3 2347.51 2534.48L1794.84 2146.46C1783.4 2138.43 1767.66 2140.93 1759.26 2152.1L1353.55 2691.91C1339.1 2711.13 1308.51 2699.39 1310.64 2675.44L1370.34 2002.81C1371.57 1988.88 1361.54 1976.49 1347.66 1974.81L677.315 1893.35C653.447 1890.45 648.322 1858.09 670.125 1847.96L1282.49 1563.34C1295.17 1557.45 1300.88 1542.57 1295.4 1529.71L1030.77 908.443Z" stroke="white" stroke-opacity="0.3" stroke-width="2"/>
<path opacity="0.586207" d="M1083.51 887.932C1075.26 865.349 1101.76 846.09 1120.69 860.916L1642.96 1270.01C1653.96 1278.63 1669.82 1276.97 1678.79 1266.25L2104.59 757.504C2120.02 739.067 2149.95 752.394 2146.58 776.199L2053.42 1433.04C2051.46 1446.88 2060.83 1459.78 2074.6 1462.19L2728.08 1576.57C2751.76 1580.72 2755.19 1613.3 2732.89 1622.28L2117.46 1870.03C2104.5 1875.25 2098.01 1889.82 2102.81 1902.94L2330.49 2526.07C2338.75 2548.65 2312.24 2567.91 2293.31 2553.08L1771.04 2143.99C1760.04 2135.37 1744.18 2137.03 1735.21 2147.75L1309.41 2656.5C1293.98 2674.93 1264.05 2661.61 1267.43 2637.8L1360.58 1980.96C1362.54 1967.12 1353.17 1954.22 1339.4 1951.81L685.92 1837.43C662.237 1833.28 658.812 1800.7 681.115 1791.72L1296.54 1543.97C1309.5 1538.75 1315.99 1524.18 1311.19 1511.06L1083.51 887.932Z" stroke="white" stroke-opacity="0.3" stroke-width="2"/>
<path opacity="0.62069" d="M1136.51 870.714C1129.45 847.73 1156.93 829.885 1175.06 845.681L1666.26 1273.76C1676.79 1282.94 1692.72 1282.11 1702.23 1271.87L2146 794.797C2162.37 777.192 2191.57 792.067 2186.95 815.662L2061.82 1455.09C2059.14 1468.81 2067.82 1482.18 2081.45 1485.31L2716.49 1631.08C2739.92 1636.46 2741.64 1669.18 2718.9 1676.98L2102.57 1888.33C2089.35 1892.87 2082.11 1907.07 2086.21 1920.44L2277.49 2543.29C2284.55 2566.27 2257.07 2584.11 2238.95 2568.32L1747.74 2140.24C1737.21 2131.06 1721.28 2131.89 1711.77 2142.12L1268 2619.2C1251.63 2636.81 1222.43 2621.93 1227.05 2598.34L1352.18 1958.9C1354.86 1945.19 1346.18 1931.82 1332.55 1928.69L697.51 1782.92C674.076 1777.54 672.361 1744.82 695.104 1737.02L1311.43 1525.67C1324.65 1521.13 1331.89 1506.92 1327.79 1493.56L1136.51 870.714Z" stroke="white" stroke-opacity="0.3" stroke-width="2"/>
<path opacity="0.655172" d="M1189.58 856.759C1183.73 833.438 1212.11 817.055 1229.38 833.779L1688.99 1278.73C1699.03 1288.45 1714.97 1288.45 1725.01 1278.73L2184.62 833.778C2201.89 817.055 2230.27 833.438 2224.42 856.759L2068.88 1477.26C2065.49 1490.82 2073.46 1504.63 2086.9 1508.46L2702.04 1684.02C2725.16 1690.62 2725.16 1723.38 2702.04 1729.98L2086.9 1905.53C2073.46 1909.37 2065.49 1923.18 2068.88 1936.73L2224.42 2557.24C2230.27 2580.56 2201.89 2596.94 2184.62 2580.22L1725.01 2135.27C1714.97 2125.55 1699.03 2125.55 1688.99 2135.27L1229.38 2580.22C1212.11 2596.94 1183.73 2580.56 1189.58 2557.24L1345.11 1936.73C1348.51 1923.18 1340.54 1909.37 1327.1 1905.53L711.959 1729.98C688.839 1723.38 688.839 1690.62 711.959 1684.02L1327.1 1508.46C1340.54 1504.63 1348.51 1490.82 1345.11 1477.26L1189.58 856.759Z" stroke="white" stroke-opacity="0.3" stroke-width="2"/>
<path opacity="0.689655" d="M1242.52 845.998C1237.9 822.402 1267.1 807.527 1283.47 825.132L1711.08 1284.84C1720.6 1295.08 1736.53 1295.91 1747.06 1286.73L2220.38 874.232C2238.51 858.437 2265.99 876.282 2258.93 899.265L2074.61 1499.44C2070.51 1512.8 2077.75 1527.01 2090.97 1531.54L2684.86 1735.2C2707.61 1743 2705.89 1775.72 2682.46 1781.1L2070.53 1921.57C2056.91 1924.7 2048.22 1938.07 2050.91 1951.78L2171.48 2567.94C2176.1 2591.54 2146.9 2606.41 2130.53 2588.81L1702.92 2129.09C1693.4 2118.86 1677.47 2118.03 1666.94 2127.21L1193.62 2539.71C1175.49 2555.5 1148.01 2537.66 1155.07 2514.67L1339.39 1914.49C1343.49 1901.13 1336.25 1886.93 1323.03 1882.39L729.137 1678.73C706.395 1670.93 708.11 1638.21 731.543 1632.83L1343.47 1492.37C1357.09 1489.24 1365.78 1475.87 1363.09 1462.15L1242.52 845.998Z" stroke="white" stroke-opacity="0.3" stroke-width="2"/>
<path opacity="0.724138" d="M1295.15 838.436C1291.77 814.631 1321.71 801.305 1337.14 819.742L1732.49 1292.11C1741.46 1302.83 1757.32 1304.49 1768.32 1295.88L2253.25 916.029C2272.17 901.203 2298.68 920.462 2290.43 943.044L2079.02 1521.62C2074.23 1534.74 2080.71 1549.31 2093.68 1554.53L2665.1 1784.56C2687.4 1793.54 2683.98 1826.13 2660.29 1830.27L2053.53 1936.47C2039.77 1938.88 2030.4 1951.78 2032.36 1965.62L2118.85 2575.5C2122.23 2599.31 2092.3 2612.63 2076.86 2594.2L1681.51 2121.83C1672.54 2111.11 1656.68 2109.44 1645.68 2118.06L1160.75 2497.91C1141.83 2512.74 1115.32 2493.48 1123.57 2470.89L1334.98 1892.32C1339.77 1879.2 1333.29 1864.63 1320.32 1859.41L748.903 1629.38C726.599 1620.4 730.024 1587.81 753.707 1583.67L1360.47 1477.46C1374.23 1475.05 1383.61 1462.16 1381.64 1448.32L1295.15 838.436Z" stroke="white" stroke-opacity="0.3" stroke-width="2"/>
<path opacity="0.758621" d="M1347.28 833.98C1345.15 810.031 1375.74 798.289 1390.18 817.509L1753.15 1300.44C1761.55 1311.61 1777.29 1314.11 1788.73 1306.08L2283.17 958.943C2302.85 945.128 2328.31 965.748 2318.89 987.868L2082.14 1543.67C2076.66 1556.53 2082.38 1571.42 2095.05 1577.31L2642.89 1831.93C2664.7 1842.07 2659.57 1874.43 2635.7 1877.33L2035.99 1950.2C2022.11 1951.89 2012.08 1964.28 2013.32 1978.2L2066.72 2579.96C2068.85 2603.91 2038.26 2615.65 2023.82 2596.43L1660.85 2113.5C1652.45 2102.32 1636.71 2099.83 1625.27 2107.86L1130.83 2455C1111.15 2468.81 1085.69 2448.19 1095.11 2426.07L1331.86 1870.27C1337.34 1857.41 1331.62 1842.52 1318.95 1836.63L771.106 1582.01C749.303 1571.87 754.429 1539.51 778.296 1536.61L1378.01 1463.74C1391.89 1462.05 1401.92 1449.66 1400.68 1435.74L1347.28 833.98Z" stroke="white" stroke-opacity="0.3" stroke-width="2"/>
<path opacity="0.793103" d="M1398.72 832.554C1397.85 808.527 1429.02 798.402 1442.44 818.352L1773.01 1309.78C1780.81 1321.38 1796.41 1324.69 1808.25 1317.27L2310.13 1002.79C2330.5 990.019 2354.85 1011.94 2344.28 1033.54L2083.98 1565.54C2077.84 1578.09 2082.77 1593.26 2095.11 1599.8L2618.4 1877.2C2639.65 1888.46 2632.83 1920.51 2608.85 1922.16L2017.97 1962.73C2004.03 1963.69 1993.36 1975.53 1993.87 1989.5L2015.28 2581.38C2016.15 2605.41 1984.99 2615.53 1971.57 2595.58L1640.99 2104.16C1633.19 2092.56 1617.6 2089.25 1605.75 2096.67L1103.87 2411.15C1083.5 2423.92 1059.15 2401.99 1069.72 2380.4L1330.02 1848.4C1336.16 1835.84 1331.24 1820.68 1318.89 1814.13L795.597 1536.74C774.355 1525.48 781.167 1493.43 805.153 1491.78L1396.03 1451.21C1409.97 1450.25 1420.64 1438.4 1420.14 1424.43L1398.72 832.554Z" stroke="white" stroke-opacity="0.3" stroke-width="2"/>
<path opacity="0.827586" d="M1449.32 834.079C1449.71 810.039 1481.36 801.559 1493.71 822.183L1792.02 1320.07C1799.21 1332.05 1814.61 1336.18 1826.82 1329.39L2334.1 1047.36C2355.12 1035.68 2378.29 1058.85 2366.6 1079.86L2084.58 1587.15C2077.79 1599.36 2081.91 1614.76 2093.9 1621.95L2591.79 1920.25C2612.41 1932.61 2603.93 1964.26 2579.89 1964.65L1999.56 1974.05C1985.58 1974.28 1974.31 1985.55 1974.08 1999.53L1964.68 2579.86C1964.29 2603.9 1932.64 2612.38 1920.29 2591.75L1621.98 2093.87C1614.8 2081.88 1599.4 2077.76 1587.18 2084.55L1079.9 2366.57C1058.88 2378.25 1035.71 2355.09 1047.4 2334.07L1329.42 1826.79C1336.21 1814.57 1332.09 1799.17 1320.1 1791.99L822.215 1493.68C801.591 1481.32 810.071 1449.68 834.111 1449.29L1414.44 1439.89C1428.42 1439.66 1439.69 1428.39 1439.92 1414.41L1449.32 834.079Z" stroke="white" stroke-opacity="0.3" stroke-width="2"/>
<path opacity="0.862069" d="M1498.9 838.459C1500.55 814.473 1532.59 807.66 1543.86 828.903L1810.14 1331.24C1816.69 1343.59 1831.85 1348.51 1844.41 1342.37L2355.1 1092.49C2376.7 1081.93 2398.62 1106.28 2385.86 1126.65L2083.97 1608.43C2076.55 1620.27 2079.86 1635.87 2091.46 1643.67L2563.21 1961.01C2583.15 1974.43 2573.03 2005.59 2549 2004.72L1980.82 1984.16C1966.86 1983.66 1955.01 1994.32 1954.05 2008.27L1915.1 2575.48C1913.46 2599.47 1881.41 2606.28 1870.15 2585.04L1603.86 2082.7C1597.31 2070.36 1582.15 2065.43 1569.59 2071.57L1058.9 2321.45C1037.3 2332.02 1015.38 2307.67 1028.14 2287.29L1330.03 1805.51C1337.46 1793.67 1334.14 1778.07 1322.54 1770.27L850.796 1452.94C830.847 1439.52 840.972 1408.36 864.999 1409.22L1433.18 1429.78C1447.14 1430.29 1458.99 1419.62 1459.95 1405.67L1498.9 838.459Z" stroke="white" stroke-opacity="0.3" stroke-width="2"/>
<path opacity="0.896552" d="M1547.3 845.588C1550.2 821.72 1582.57 816.595 1592.7 838.398L1827.33 1343.23C1833.22 1355.9 1848.11 1361.61 1860.97 1356.14L2373.13 1137.98C2395.25 1128.56 2415.87 1154.02 2402.06 1173.7L2082.18 1629.31C2074.15 1640.75 2076.64 1656.5 2087.81 1664.89L2532.83 1999.36C2552.05 2013.8 2540.31 2044.39 2516.36 2042.27L1961.85 1993.05C1947.92 1991.82 1935.53 2001.85 1933.85 2015.73L1866.7 2568.35C1863.8 2592.22 1831.43 2597.35 1821.3 2575.54L1586.67 2070.71C1580.78 2058.04 1565.89 2052.33 1553.03 2057.8L1040.87 2275.96C1018.75 2285.38 998.13 2259.92 1011.95 2240.24L1331.82 1784.63C1339.85 1773.19 1337.36 1757.44 1326.19 1749.05L881.173 1414.58C861.953 1400.13 873.695 1369.55 897.644 1371.67L1452.16 1420.89C1466.08 1422.12 1478.47 1412.09 1480.15 1398.21L1547.3 845.588Z" stroke="white" stroke-opacity="0.3" stroke-width="2"/>
<path opacity="0.931035" d="M1594.38 855.356C1598.53 831.673 1631.12 828.249 1640.09 850.552L1843.56 1355.97C1848.78 1368.93 1863.34 1375.42 1876.47 1370.62L2388.21 1183.64C2410.79 1175.38 2430.05 1201.89 2415.23 1220.82L2079.26 1649.73C2070.64 1660.73 2072.3 1676.59 2083.02 1685.56L2500.83 2035.25C2519.26 2050.68 2505.94 2080.61 2482.13 2077.24L1942.7 2000.73C1928.86 1998.77 1915.96 2008.14 1913.55 2021.91L1819.62 2558.58C1815.47 2582.26 1782.88 2585.69 1773.91 2563.39L1570.44 2057.97C1565.22 2045.01 1550.66 2038.52 1537.53 2043.32L1025.79 2230.3C1003.21 2238.55 983.947 2212.05 998.773 2193.12L1334.75 1764.21C1343.36 1753.21 1341.7 1737.35 1330.98 1728.38L913.173 1378.69C894.736 1363.26 908.064 1333.33 931.868 1336.7L1471.3 1413.21C1485.14 1415.17 1498.04 1405.8 1500.45 1392.03L1594.38 855.356Z" stroke="white" stroke-opacity="0.3" stroke-width="2"/>
<path opacity="0.965517" d="M1640 867.647C1645.38 844.214 1678.1 842.499 1685.9 865.242L1858.79 1369.4C1863.32 1382.62 1877.53 1389.85 1890.89 1385.75L2400.38 1229.29C2423.36 1222.23 2441.2 1249.71 2425.41 1267.83L2075.24 1669.63C2066.06 1680.17 2066.89 1696.09 2077.13 1705.61L2467.38 2068.61C2484.98 2084.98 2470.1 2114.18 2446.51 2109.56L1923.46 2007.21C1909.74 2004.52 1896.37 2013.21 1893.24 2026.83L1774 2546.29C1768.62 2569.73 1735.9 2571.44 1728.1 2548.7L1555.22 2044.54C1550.68 2031.32 1536.47 2024.09 1523.11 2028.19L1013.63 2184.66C990.642 2191.71 972.797 2164.23 988.593 2146.11L1338.76 1744.31C1347.94 1733.77 1347.11 1717.85 1336.87 1708.33L946.626 1345.33C929.022 1328.96 943.897 1299.76 967.492 1304.38L1490.55 1406.73C1504.26 1409.42 1517.63 1400.73 1520.76 1387.11L1640 867.647Z" stroke="white" stroke-opacity="0.3" stroke-width="2"/>
<path d="M1684.02 882.331C1690.62 859.211 1723.38 859.211 1729.98 882.331L1872.99 1383.44C1876.83 1396.88 1890.63 1404.85 1904.19 1401.45L2409.67 1274.75C2432.99 1268.9 2449.37 1297.28 2432.65 1314.55L2070.18 1688.96C2060.46 1699 2060.46 1714.94 2070.18 1724.98L2432.65 2099.39C2449.37 2116.66 2432.99 2145.04 2409.67 2139.19L1904.19 2012.49C1890.63 2009.09 1876.83 2017.06 1872.99 2030.5L1729.98 2531.61C1723.38 2554.73 1690.62 2554.73 1684.02 2531.61L1541.01 2030.5C1537.17 2017.06 1523.37 2009.09 1509.81 2012.49L1004.33 2139.19C981.011 2145.04 964.628 2116.66 981.352 2099.39L1343.82 1724.98C1353.54 1714.94 1353.54 1699 1343.82 1688.96L981.352 1314.55C964.629 1297.28 981.011 1268.9 1004.33 1274.75L1509.81 1401.45C1523.37 1404.85 1537.17 1396.88 1541.01 1383.44L1684.02 882.331Z" stroke="white" stroke-opacity="0.3" stroke-width="2"/>
</svg>
