<svg width="1272" height="714" viewBox="0 0 1272 714" fill="none" xmlns="http://www.w3.org/2000/svg">
<path d="M1113.98 218.549C1119.84 218.265 1120.74 221.611 1123.24 226.072C1116.94 229.455 1115.62 230.347 1108.43 230.569C1105.88 234.366 1098.83 244.248 1103.43 248.039C1108.08 249.021 1112.23 246.486 1116.65 244.548C1124.53 248.384 1128.09 250.679 1136.94 250.119C1138.97 253.444 1141.04 257.305 1142.98 260.727C1132.34 260.926 1127.08 261.718 1116.75 263.604C1110.16 276.635 1104.19 269.24 1091.83 270.924C1080.61 271.714 1081.32 273.563 1074.98 281.537C1066.83 291.783 1048.83 282.817 1041.57 276.544C1031.04 279.243 1029.47 284.403 1020.61 287.577C1011.51 290.604 1001.53 289.119 992.315 290.444C989.415 290.861 976.788 296.389 975.931 299.045C979.092 299.994 986.508 300.097 991.005 300.87C1000.64 310.145 1015.19 310.104 1027.77 312.435C1032.05 313.226 1039.09 311.541 1043.67 311.92C1055.44 312.895 1067.64 313.617 1079.24 310.893C1084.65 309.558 1089.73 302.6 1095.75 300.013C1117.8 305 1133.99 305.751 1130.11 276.744C1134.75 270.017 1138.5 268.775 1145.85 265.61C1149.86 271.884 1155.58 282.078 1158.94 288.717C1153.51 291.17 1148.4 295.11 1143.81 298.88C1141.71 325.19 1112.16 319.061 1093.14 320.289C1088.24 320.605 1079.02 319.088 1076.24 324.108C1080.96 326.657 1089.62 324.211 1095.85 324.851C1110.24 326.33 1123.36 330.126 1137.19 333.815C1142.17 330.909 1143.22 330.98 1148.92 330.173C1151.95 327.571 1153.37 326.432 1156.78 324.249C1164.64 323.677 1172.25 325.506 1179.66 324.281L1210.91 378.172C1217 388.623 1223.15 398.803 1228.9 409.618C1234.44 420.031 1228.31 432.638 1216.16 433.667C1208.73 434.296 1201.69 434.137 1194.19 434.138L1157.07 434.146C1121.73 434.152 1083.85 434.848 1048.69 433.987C1047.74 423.43 1050.31 419.763 1050.36 409.157C1050.4 398.332 1046.91 387.709 1047.88 377.248C1048.27 372.946 1052.13 372.394 1053.65 370.347C1051.11 367.007 1027.56 365.484 1022.12 364.771C1020.4 362.585 1018.55 359.428 1015.61 359.465C1011.8 365.953 1029.62 399.893 1003.36 382.451C1000.79 380.74 998.222 379.12 995.675 377.343C991.986 373.863 985.694 360.537 980.309 365.407C979.831 370.966 989.427 378.081 993.042 382.268C1000.11 390.464 1004.99 399.77 1014.84 404.801C1017.76 413.955 1016.94 424.472 1016.74 434.1L919.79 434.146C909.381 434.151 859.823 435.418 853.662 431.983C849.855 429.896 847.072 426.339 845.961 422.143C843.576 413.364 848.321 407.448 852.414 400.129C854.873 395.742 857.494 391.415 860.022 387.069L885.456 343.24C890.127 345.119 897.356 347.052 902.443 348.435C917.722 352.589 928.007 357.98 943.653 352.911C948.826 354.441 951.795 356.416 956.422 359.117C965.509 357.916 974.005 359.159 982.875 357.613C986.905 356.91 984.794 352.574 988.241 351.034C995.116 347.959 1002.9 347.192 1009.83 344.187C1014.26 342.12 1017.84 338.813 1022.7 336.929C1027.71 334.981 1047.16 336.532 1048.06 330.774C1041.41 320.099 997.458 332.795 986.806 324.224C982.477 320.739 988.887 315.582 988.297 311.447C985.322 307.771 977.838 310.867 970.751 308.804C964.639 307.64 957.919 304.256 953.696 299.573C942.646 287.319 939.839 301.624 930.349 305.118C924.945 307.105 921.417 304.899 916.436 302.372C913.039 303.652 909.865 305.157 906.573 306.671C909.94 300.68 913.387 294.732 916.908 288.829C931.591 290.239 945.659 282.924 959.447 278.797C965 277.133 970.881 276.75 976.552 275.575C981.937 274.462 987.694 272.251 993.11 271.729C996.47 271.405 999.669 273.22 1003.02 273.177C1009.09 273.099 1014.83 267.253 1018.8 263.192C1015.17 263.276 1006.69 264.903 1002.78 265.686C992.085 267.829 985.322 268.28 974.508 267.475C963.341 259.266 963.174 265.748 951.863 269.332C944.454 267.451 940.193 263.91 933.547 260.112C939.653 249.049 947.398 234.908 954.335 224.464C961.205 240.549 956.851 238.19 975.341 238.406C979.639 241.788 983.285 249.66 988.812 249.247C1003.76 248.132 1019.66 248.25 1034.42 246.129C1043.71 250.12 1048.59 252.393 1058.37 254.444C1067.95 250.214 1073.21 251.474 1081.36 247.454C1087.62 243.413 1090.91 235.394 1095.62 230.043C1097.62 227.782 1104.69 225.352 1107.17 223.364C1109.73 221.327 1111.21 220.157 1113.98 218.549ZM1075.41 343.527L1070.06 348.541C1063.19 349.824 1060.52 349.873 1054.6 353.654C1048.85 353.713 1038.91 352.288 1035.59 357.685C1036.03 363.335 1050.52 359.163 1053.1 361.769C1060.55 369.296 1060.54 370.653 1071.61 368.81C1085.22 369.409 1089.04 374.989 1104.52 369.332C1119.41 369.583 1120.1 366.103 1133.24 363.201C1138.27 365.228 1152.25 367.375 1155.62 362.135C1152.77 357.733 1142.4 357.704 1137.94 356.603C1132.77 355.331 1125.37 350.621 1121.54 346.971C1115.47 347.941 1104.03 345.451 1097.92 343.757C1093.85 342.626 1092.2 340.481 1087.76 340.885C1083.18 343.018 1080.3 342.769 1075.41 343.527Z" fill="#282B69"/>
<path d="M344.849 122.979C345.731 122.923 346.616 122.889 347.5 122.876L401.905 122.822C412.329 122.818 426.46 122.355 436.64 123.174C461.88 125.088 483.931 135.009 502.095 152.782C537.269 187.196 536.169 260.871 501.74 295.429C474.16 323.113 440.937 321.119 404.798 321.06C402.764 320.996 402.236 321.024 400.237 321.392C399.498 326.183 400.004 344.476 399.985 350.655C400.041 374.068 399.963 397.494 400.03 420.905C400.044 425.939 397.991 433.679 391.826 434.105C376.265 435.179 359.869 434.737 344.208 434.463C337.683 430.467 336.351 428.857 336.281 421.07C336.092 400.169 336.21 379.261 336.228 358.358L336.245 239.592L336.216 168.4C336.209 158.517 335.652 139.126 336.712 130.053C339.445 125.908 340.345 125.097 344.849 122.979ZM455.086 250.965C467.877 237.596 468.336 206.489 455.197 193.266C441.831 179.814 417.664 183.219 399.969 183.152L400.001 261.156C418.53 261.113 441.234 264.254 455.086 250.965Z" fill="#282B69"/>
<path d="M127.757 123.169C129.857 122.809 137.077 122.729 139.408 122.887C166.52 124.731 192.084 133.119 210.736 153.791C226.088 170.159 230.85 192.435 230.403 214.28C230.287 219.947 227.037 226.323 220.619 226.54C205.439 227.054 188.364 227.743 173.265 226.509C167.365 222.676 166.457 219.287 166.375 212.342C166.4 205.946 165.7 198.79 160.928 193.937C148.572 181.37 123.495 181.363 110.609 193.158C105.547 197.792 104.31 204.382 104.287 210.947C104.179 242.404 104.359 273.863 104.369 305.321L104.231 334.685C104.199 340.032 103.886 346.442 104.512 351.593C107.535 376.175 145.111 378.531 160.147 364.268C169.055 355.818 166.581 336.342 166.471 324.683C154.371 324.543 133.444 329.388 134.718 310.362C135.402 300.149 131.855 271.158 138.639 263.67C142.29 259.641 169.844 261.05 176.701 261.093C185.842 261.133 219.976 258.947 226.033 263.654C228.727 265.747 229.769 269.98 230.177 273.187C231.603 284.407 230.315 297.703 230.29 309.143C230.223 339.814 234.557 373.262 214.566 399.161C198.356 420.158 173.594 430.6 147.81 433.835C121.871 437.089 91.4728 430.163 70.7066 413.899C54.2445 401.2 43.5979 382.404 41.1728 361.76C40.0545 352.536 40.4222 340.738 40.432 331.198L40.4705 284.522L40.4223 230.362C40.4158 218.344 39.8259 202.063 41.9487 190.631C44.1233 178.534 49.2235 167.15 56.8051 157.472C75.0126 134.402 99.7166 126.517 127.757 123.169Z" fill="#282B69"/>
<path d="M642.317 122.997C654.409 122.18 667.601 123.245 679.8 122.735C684.731 122.529 691.035 123.246 694.855 126.598C697.085 128.558 697.066 133.641 697.383 136.48C697.612 148.24 697.513 160.361 697.513 172.101L697.519 240.753C697.519 302.58 698.078 365.351 697.395 427.113C694.464 431.634 693.818 432.48 688.886 434.526C677.011 434.825 665.048 434.571 653.123 434.729C642.36 434.871 633.77 434.248 633.721 421.246C633.64 399.502 633.665 377.761 633.665 356.023V227.429L633.634 163.196C633.634 155.529 633.168 136.619 634.329 129.813C636.82 125.819 638.056 125.038 642.317 122.997Z" fill="#282B69"/>
<path d="M1034.73 95.776C1040.02 95.3823 1047.02 96.056 1050.12 100.942C1072.46 136.159 1092.06 173.798 1113.68 209.471L1107.82 211.25C1104.35 210.331 1098.73 208.126 1095.17 206.841C1084.36 210.572 1079.21 217.104 1067.06 216.518C1057.75 216.071 1047.62 215.02 1038.47 216.546C1027.03 218.529 1023.15 218.575 1012.59 214.127C1005.89 216.436 1001.39 217.474 994.533 219.033C980.732 213.099 976.39 209.634 961 212.807C970.161 194.976 983.167 174.471 993.222 156.75C1000.12 144.569 1007.1 132.428 1014.13 120.326C1019.69 110.735 1023.77 99.3429 1034.73 95.776ZM989.166 189.108C997.949 196.329 999.688 194.746 1010.26 191.957C1016.96 198.49 1018.86 197.468 1027.79 200.043C1029.78 200.616 1032.2 201.841 1033.99 202.21C1045.33 199.168 1065.83 196.666 1077.48 197.488C1082.96 193.595 1085.04 192.147 1088.96 186.465C1074.94 188.415 1074.05 187.712 1060.67 183.017C1058.49 182.251 1055.97 183.692 1053.17 181.879C1049.67 178.357 1052.06 171.184 1043.61 172.851C1035.48 174.023 1026.66 174.869 1018.86 175.425C1014.67 175.724 993.011 186.469 989.166 189.108Z" fill="#282B69"/>
<path d="M902.418 314.038C913.635 315.243 923.287 321.753 931.156 329.556C925.274 336.937 922.92 337.748 914.045 338.771C905.958 339.419 903.977 340.384 896.735 337.028C894.692 337.687 891.35 338.689 889.332 338.108C888.934 335.021 899.896 318.134 902.418 314.038Z" fill="#282B69"/>
<path d="M39.8486 493.066C85.683 493.637 132.835 493.107 178.792 493.109L451.598 493.113L1232.16 493.073C1232.18 498.104 1232.48 507.182 1231.96 511.885C1204.19 511.319 1175.3 511.739 1147.4 511.741L992.725 511.752L525.957 511.739L204.137 511.732L98.4682 511.731C79.9714 511.73 58.0421 511.159 39.9212 512.012L39.8486 493.066Z" fill="#ED2127"/>
</svg>
