<svg width="136" height="30" viewBox="0 0 136 30" fill="none" xmlns="http://www.w3.org/2000/svg">
<g clip-path="url(#clip0_20858_43367)">
<path d="M107.997 13.1834V11.6207C107.997 9.69205 107.423 8.27344 106.275 7.36456C105.148 6.43349 103.599 5.96802 101.628 5.96802C100.458 5.96802 99.4075 6.12313 98.4759 6.43349C97.5445 6.72165 96.7971 7.03201 96.2338 7.36456C95.7789 7.65273 95.4539 7.95192 95.259 8.26228C95.0857 8.55044 94.9991 8.92725 94.9991 9.39286V13.1834V15.0121V20.7312C94.9991 21.1525 95.1182 21.4628 95.3565 21.6623C95.5947 21.8396 95.9414 21.9283 96.3963 21.9283C96.6562 21.9283 96.8946 21.8951 97.1111 21.8286C97.3278 21.7842 97.4903 21.7398 97.5986 21.6955V15.0121V13.1834V9.25981C98.0752 8.97165 98.6492 8.71672 99.3208 8.49501C99.9923 8.27344 100.761 8.16259 101.628 8.16259C102.776 8.16259 103.686 8.45075 104.358 9.02708C105.051 9.6034 105.397 10.5123 105.397 11.7536V13.1834V15.0121V20.7312C105.397 21.1525 105.506 21.4628 105.722 21.6623C105.961 21.8396 106.318 21.9283 106.795 21.9283C107.033 21.9283 107.26 21.8951 107.477 21.8286C107.715 21.7842 107.889 21.7398 107.997 21.6955V15.0121V13.1834Z" fill="#24262E"/>
<path d="M68.7678 21.7982C68.3561 21.7982 68.0096 21.6652 67.7278 21.3992C67.4679 21.111 67.3379 20.7564 67.3379 20.3352V1.64832H70.0025V19.4707H79.3284C79.4368 19.5594 79.5234 19.7035 79.5885 19.903C79.6534 20.1025 79.6859 20.3242 79.6859 20.5679C79.6859 20.9448 79.5885 21.2441 79.3935 21.4657C79.1985 21.6874 78.9386 21.7982 78.6136 21.7982H68.7678Z" fill="#24262E"/>
<path d="M65.76 14.1172C65.76 15.7575 65.4567 17.1873 64.8501 18.4065C64.2434 19.6256 63.3878 20.5678 62.283 21.2327C61.1782 21.8978 59.8784 22.2303 58.3837 22.2303C56.8888 22.2303 55.5783 21.8978 54.4518 21.2327C53.347 20.5678 52.4913 19.6256 51.8847 18.4065C51.2782 17.1873 50.9749 15.7575 50.9749 14.1172C50.9749 12.4547 51.2782 11.0249 51.8847 9.82788C52.513 8.60865 53.3795 7.66654 54.4842 7.00156C55.6108 6.33659 56.9105 6.00403 58.3837 6.00403C59.8568 6.00403 61.1457 6.33659 62.2505 7.00156C63.3554 7.66654 64.211 8.60865 64.8176 9.82788C65.4457 11.0249 65.76 12.4547 65.76 14.1172ZM58.3837 8.1986C56.9322 8.1986 55.7733 8.73053 54.9068 9.79466C54.0618 10.8365 53.6394 12.2773 53.6394 14.1172C53.6394 15.9792 54.051 17.4312 54.8742 18.473C55.7191 19.5148 56.8888 20.0358 58.3837 20.0358C59.8568 20.0358 61.0049 19.5148 61.8281 18.473C62.6729 17.409 63.0953 15.957 63.0953 14.1172C63.0953 12.2773 62.6729 10.8365 61.8281 9.79466C61.0049 8.73053 59.8568 8.1986 58.3837 8.1986Z" fill="#24262E"/>
<path fill-rule="evenodd" clip-rule="evenodd" d="M42.9955 21.3327C41.7391 21.3327 40.58 21.0888 39.5185 20.6011C38.457 20.0914 37.6014 19.2711 36.9516 18.1406C36.3016 17.0101 35.9767 15.5139 35.9767 13.6517C35.9767 11.9672 36.2908 10.5594 36.919 9.42899C37.569 8.29841 38.457 7.44496 39.5836 6.86864C40.7101 6.29231 41.999 6.00415 43.4504 6.00415C44.447 6.00415 45.3568 6.1372 46.18 6.40316C47.0249 6.64707 47.7289 6.95729 48.2921 7.33424C48.6171 7.55581 48.877 7.81074 49.072 8.0989C49.2887 8.365 49.397 8.69742 49.397 9.09644V18.8057V19.3708V22.4631C49.397 23.9263 49.0829 25.1011 48.4546 25.9878C47.848 26.8745 47.0032 27.5172 45.92 27.9163C44.8585 28.3153 43.6562 28.5148 42.3131 28.5148C41.23 28.5148 40.2984 28.3929 39.5185 28.149C38.7388 27.9052 38.208 27.7057 37.9264 27.5505C37.2764 27.1737 36.9516 26.6972 36.9516 26.1207C36.9516 25.8103 37.0165 25.5444 37.1465 25.3227C37.2981 25.1232 37.4823 24.9681 37.6989 24.8572C38.1539 25.212 38.7928 25.5333 39.6161 25.8215C40.4609 26.1319 41.3599 26.287 42.3131 26.287C43.7645 26.287 44.8694 25.9656 45.6276 25.3227C46.4075 24.6799 46.7974 23.6713 46.7974 22.297V20.2004C46.4856 20.4451 46.074 20.6784 45.5626 20.9004C44.8694 21.1886 44.0137 21.3327 42.9955 21.3327ZM45.4001 8.49792C45.9634 8.67523 46.4292 8.8859 46.7974 9.12967V17.7505C46.4774 18.0693 46.0767 18.3656 45.5951 18.6394C45.0102 18.9718 44.2411 19.1381 43.2879 19.1381C41.9665 19.1381 40.8509 18.7169 39.9411 17.8746C39.0529 17.0323 38.6088 15.6136 38.6088 13.6185C38.6088 11.8229 39.0529 10.4708 39.9411 9.56191C40.8292 8.65316 41.999 8.19872 43.4504 8.19872C44.2086 8.19872 44.8585 8.29841 45.4001 8.49792Z" fill="#24262E"/>
<path fill-rule="evenodd" clip-rule="evenodd" d="M86.8771 21.848C85.5925 21.848 84.4076 21.5975 83.3225 21.0965C82.2372 20.5728 81.3625 19.7303 80.6981 18.5691C80.0336 17.4078 79.7014 15.8708 79.7014 13.9581C79.7014 12.2277 80.0226 10.7817 80.6648 9.62048C81.3293 8.45922 82.2372 7.58263 83.3889 6.99057C84.5406 6.3985 85.8583 6.10254 87.3421 6.10254C88.3608 6.10254 89.291 6.23922 90.1325 6.51245C90.9963 6.76281 91.7161 7.08164 92.2919 7.46868C92.6242 7.69644 92.8899 7.95823 93.0892 8.25433C93.3107 8.52756 93.4214 8.86913 93.4214 9.27891V19.8329V21.848C93.4214 21.848 91.3743 22.3703 90.963 21.4039C90.7857 20.9868 90.7637 20.685 90.7637 20.685C90.4449 20.9363 90.0242 21.1759 89.5014 21.4039C88.7927 21.7 87.9179 21.848 86.8771 21.848ZM90.7637 9.31308V18.1684C90.4366 18.4958 90.0269 18.8002 89.5346 19.0814C88.9367 19.4229 88.1505 19.5937 87.176 19.5937C85.825 19.5937 84.6845 19.161 83.7544 18.2959C82.8463 17.4306 82.3923 15.9733 82.3923 13.9241C82.3923 12.0797 82.8463 10.6907 83.7544 9.75716C84.6623 8.82353 85.8583 8.35671 87.3421 8.35671C88.1172 8.35671 88.7817 8.45922 89.3353 8.66411C89.9111 8.84626 90.3873 9.06258 90.7637 9.31308Z" fill="#24262E"/>
<path fill-rule="evenodd" clip-rule="evenodd" d="M124.866 17.8402L132.582 11.4077C132.889 11.1683 133.084 10.9086 133.168 10.6284C133.242 10.3295 133.158 9.97474 132.915 9.5641C132.256 8.44416 131.426 7.60651 130.427 7.05089C129.435 6.46546 128.366 6.19386 127.222 6.23607C126.095 6.26707 124.974 6.62482 123.859 7.30944C122.982 7.84818 122.261 8.50616 121.699 9.28365C121.125 10.0424 120.734 10.8794 120.526 11.7947C120.336 12.6987 120.334 13.6662 120.518 14.6968C120.709 15.6977 121.769 17.7083 121.769 17.7083C121.769 17.7083 120.091 18.9459 119.446 19.2253C118.801 19.5047 118.101 19.6942 117.229 19.6942C115.783 19.6942 114.582 19.1943 113.625 18.1945C112.668 17.1946 112.19 15.76 112.19 13.8907C112.19 12.0431 112.647 10.6195 113.561 9.61963C114.497 8.61973 115.719 8.11978 117.229 8.11978C118.122 8.11978 118.963 8.32416 119.253 8.47433C119.253 8.47433 121.138 7.43249 120.22 6.82542C119.542 6.37646 118.548 5.96802 117.229 5.96802C115.762 5.96802 114.444 6.25057 113.274 6.81569C112.126 7.40257 111.222 8.28282 110.563 9.45658C109.904 10.6303 109.574 12.1084 109.574 13.8907C109.574 15.6513 109.915 17.1185 110.595 18.2922C111.275 19.4878 112.19 20.379 113.338 20.9657C114.507 21.5744 115.783 21.8787 117.165 21.8787C118.483 21.8787 119.446 21.5754 120.22 21.204C121.059 20.8498 122.414 19.9508 122.93 19.4231C123.498 20.0803 124.148 20.694 124.809 21.0964C125.981 21.7751 127.232 22.0615 128.563 21.9555C129.913 21.8384 131.292 21.3478 132.7 20.4837C133.504 19.9899 134.171 19.4533 134.701 18.8738C135.25 18.2831 135.628 17.7206 135.836 17.1864C136.051 16.6222 136.055 16.1627 135.846 15.808C135.714 15.5841 135.535 15.4274 135.308 15.338C135.088 15.2186 134.839 15.1554 134.561 15.1482C134.371 15.6713 134.042 16.2543 133.575 16.8972C133.108 17.54 132.49 18.0972 131.722 18.5685C130.276 19.4551 128.909 19.774 127.617 19.5249C126.621 19.3084 125.696 18.7415 124.866 17.8402ZM130.6 10.4515C129.923 9.46991 129.081 8.8432 128.075 8.57146C127.057 8.28111 126 8.47265 124.903 9.14607C123.77 9.84191 123.076 10.8398 122.82 12.1398C122.579 13.3763 122.846 14.6905 123.704 16.1913L130.6 10.4515Z" fill="#24262E"/>
<path fill-rule="evenodd" clip-rule="evenodd" d="M28.417 5.27847C28.4959 3.77077 27.9113 2.24387 26.7021 1.19089C24.6466 -0.599161 21.565 -0.341963 19.819 1.76533C19.1319 2.59454 18.754 3.58663 18.6737 4.59415C18.5511 5.65418 18.6706 6.71445 18.8062 7.91608C19.0012 9.64536 19.2292 11.6671 18.816 14.4012C18.4744 16.6613 17.5272 18.544 16.6699 20.2482C16.0659 21.4492 15.5065 22.5613 15.2348 23.6545C14.743 25.4754 15.2829 27.5054 16.7799 28.8092C18.8354 30.5991 21.917 30.342 23.663 28.2347C24.3088 27.4553 24.6815 26.5319 24.7906 25.5873C25.0018 24.2404 24.8553 22.7818 24.7011 21.2472C24.5124 19.3688 24.3122 17.3767 24.7426 15.3368C25.3194 12.6023 26.2036 10.9215 26.9624 9.47896C27.605 8.25739 28.1577 7.20672 28.3578 5.832C28.3863 5.65624 28.4055 5.47939 28.4157 5.30229C28.4162 5.29451 28.4168 5.28673 28.4173 5.27883L28.417 5.27847Z" fill="url(#paint0_linear_20858_43367)"/>
<path fill-rule="evenodd" clip-rule="evenodd" d="M25.751 9.42706C27.063 8.74659 28.0596 7.47027 28.3442 5.8779C28.8281 3.171 27.0716 0.576052 24.4211 0.0819324C23.3779 -0.112677 22.3515 0.0472888 21.4608 0.477957C20.5055 0.897078 19.6704 1.53026 18.7243 2.24779C17.3625 3.28052 15.7701 4.48793 13.2563 5.48334C11.1784 6.30614 9.11644 6.40618 7.24984 6.49662C5.93347 6.56055 4.71432 6.61963 3.65555 6.92437C1.87454 7.39673 0.43241 8.88334 0.0801746 10.8536C-0.403722 13.5605 1.35266 16.1555 4.00325 16.6496C4.98415 16.8325 5.95009 16.7021 6.80219 16.328C8.04365 15.8442 9.20096 14.9893 10.4186 14.0898C11.9094 12.9884 13.4907 11.8203 15.4272 11.1855C18.023 10.3345 19.8832 10.2793 21.4796 10.2321C22.8322 10.1919 23.9955 10.1575 25.2566 9.64938C25.4179 9.58751 25.5755 9.51701 25.7289 9.43848C25.7363 9.43484 25.7436 9.43131 25.7509 9.42767L25.751 9.42706Z" fill="url(#paint1_linear_20858_43367)"/>
<path fill-rule="evenodd" clip-rule="evenodd" d="M17.338 29.166C18.5749 29.9901 20.1605 30.2346 21.6578 29.6874C24.2031 28.7573 25.5296 25.8919 24.6205 23.2875C24.2634 22.2642 23.6142 21.4334 22.8033 20.8583C21.9665 20.2178 21.0078 19.7932 19.9211 19.3118C18.3594 18.6203 16.5336 17.8117 14.4261 16.0772C12.684 14.6436 11.5647 12.861 10.5515 11.2472C9.83788 10.1108 9.17689 9.05808 8.38804 8.27033C7.09301 6.92226 5.1034 6.38587 3.24911 7.06343C0.70386 7.99357 -0.622596 10.8589 0.286431 13.4634C0.622589 14.4265 1.2174 15.219 1.9623 15.7885C2.99673 16.6497 4.30506 17.2491 5.68164 17.8798C7.36629 18.6515 9.15303 19.4701 10.6644 20.8725C12.6903 22.7522 13.6701 24.3781 14.5111 25.7735C15.2215 26.9522 15.8327 27.9664 16.8918 28.8303C17.0309 28.9479 17.1761 29.0574 17.3264 29.1581C17.3302 29.1608 17.334 29.1634 17.3378 29.166H17.338Z" fill="url(#paint2_linear_20858_43367)"/>
</g>
<defs>
<linearGradient id="paint0_linear_20858_43367" x1="18.0897" y1="3.92757" x2="15.7751" y2="30.5745" gradientUnits="userSpaceOnUse">
<stop stop-color="#222D56"/>
<stop offset="1" stop-color="#4163DD"/>
</linearGradient>
<linearGradient id="paint1_linear_20858_43367" x1="28.5648" y1="5.99314" x2="-2.09543" y2="11.9815" gradientUnits="userSpaceOnUse">
<stop stop-color="#3F56B6"/>
<stop offset="1" stop-color="#344384"/>
</linearGradient>
<linearGradient id="paint2_linear_20858_43367" x1="23.7293" y1="28.2297" x2="0.742456" y2="9.04265" gradientUnits="userSpaceOnUse">
<stop stop-color="#4B66D6"/>
<stop offset="1" stop-color="#3B4EA1"/>
</linearGradient>
<clipPath id="clip0_20858_43367">
<rect width="136" height="30" fill="white"/>
</clipPath>
</defs>
</svg>
