<?xml version="1.0" encoding="utf-8"?>
<!-- Generator: Adobe Illustrator 19.0.0, SVG Export Plug-In . SVG Version: 6.00 Build 0)  -->
<svg version="1.1" id="layer" xmlns="http://www.w3.org/2000/svg" xmlns:xlink="http://www.w3.org/1999/xlink" x="0px" y="0px"
	 viewBox="-136 226 610 98" style="enable-background:new -153 -46 652 652;" xml:space="preserve">
<style type="text/css">
	.st0{fill:#61B4E4;}
	.st1{fill:#7282C2;}
	.st2{fill:#003B71;}
</style>
<path id="XMLID_21_" class="st0" d="M-64.1,317.1h-20v-37.3c0-9.8-1.4-19.9-12-19.9c-14.2,0-15.3,13.1-15.3,17.1v40.1h-20v-73.6
	h19.1v8.9c4.5-6.9,11.8-10.7,21.1-10.7c17,0,27.1,10.9,27.1,29.2V317.1z"/>
<polyline id="XMLID_20_" class="st0" points="66.6,297.6 84.5,243.5 105.5,243.5 77.6,317.1 54.9,317.1 25.9,243.5 48.4,243.5 
	66.2,297.6 66.6,297.6 "/>
<path id="XMLID_19_" class="st0" d="M269,318.9c-17,0-27.1-10.9-27.1-29.2v-46.2h20v37.3c0,9.9,1.4,19.9,12,19.9
	c14.2,0,15.3-13.1,15.3-17.1v-40.1h20v73.6h-19.1v-8.9C285.7,315.1,278.3,318.9,269,318.9"/>
<path id="XMLID_16_" class="st0" d="M410.1,318.8c-21.3,0-36.8-16.2-36.8-38.6c0-23.1,14.8-38.6,36.8-38.6c23.2,0,36.5,14.6,36.5,40
	v6h-53.1c1.5,9.2,8,14.8,17.3,14.8c9,0,13.8-4.5,17.7-9.3l0.7-0.8l14.5,11l-0.7,0.9C435.5,313.5,423.5,318.8,410.1,318.8 M393.6,272
	h33c-0.6-9.4-6.5-14.8-16.4-14.8C401.1,257.2,395.2,262.4,393.6,272"/>
<path id="XMLID_13_" class="st0" d="M-13.6,318.9c-21.6,0-39.1-17.3-39.1-38.6c0-21.3,17.6-38.6,39.1-38.6
	c21.6,0,39.1,17.3,39.1,38.6C25.5,301.6,7.9,318.9-13.6,318.9 M-13.6,260.4c-11.1,0-20.1,8.9-20.1,19.9c0,10.9,9,19.9,20.1,19.9
	c11.1,0,20.1-8.9,20.1-19.9C6.5,269.3-2.5,260.4-13.6,260.4"/>
<path id="XMLID_12_" class="st0" d="M346.1,317.1h-20v-73.6h20v8.8c4.4-6.7,11.8-10.6,20.4-10.6c0.6,0,1.3,0,2.1,0.1l1,0.1v19.5
	l-1.3-0.2c-1.5-0.2-2.8-0.4-4-0.4c-17.9,0-18.1,16.8-18.1,16.9V317.1z"/>
<path id="XMLID_9_" class="st1" d="M145.3,318.4c-21.6,0-39.1-17.3-39.1-38.6c0-21.3,17.6-38.6,39.1-38.6
	c21.6,0,39.1,17.3,39.1,38.6C184.4,301.1,166.9,318.4,145.3,318.4 M145.3,260c-11.1,0-20.1,8.9-20.1,19.9c0,10.9,9,19.9,20.1,19.9
	c11.1,0,20.1-8.9,20.1-19.9C165.4,268.9,156.4,260,145.3,260"/>
<path id="XMLID_8_" class="st1" d="M204.6,318.5c-21.6,0-39.1-17.3-39.1-38.6c0-21.3,17.6-38.6,39.1-38.6c10.5,0,20.4,4.2,27.7,11.7
	l0.7,0.8l-13.5,13.1l-0.7-0.8c-3.8-3.9-8.8-6-14.2-6c-11.1,0-20.1,8.9-20.1,19.9c0,10.9,9,19.9,20.1,19.9c6,0,11.7-2.7,15.5-7.4
	l0.7-0.8l14.6,11.7l-0.7,0.8C227.3,313.2,216.3,318.5,204.6,318.5"/>
<path id="XMLID_7_" class="st2" d="M184.4,279.8c0-9.6-3.6-18.4-9.5-25.2c-5.9,6.8-9.5,15.6-9.5,25.2c0,9.6,3.6,18.4,9.5,25.2
	C180.8,298.3,184.4,289.5,184.4,279.8"/>
<path id="XMLID_2_" class="st0" d="M456.9,231.3c6.5,0,11.7,5.3,11.7,11.9s-5.2,11.9-11.7,11.9c-6.4,0-11.6-5.3-11.6-11.9
	S450.5,231.3,456.9,231.3 M456.9,252.4c5,0,8.8-4.1,8.8-9.3c0-5.2-3.8-9.2-8.8-9.2c-4.9,0-8.7,4.1-8.7,9.2
	C448.2,248.3,452,252.4,456.9,252.4 M452.8,237.1h4.9c2.3,0,3.9,1.5,3.9,3.8c0,1.8-1.3,2.9-2.1,3.1v0.1c0,0,0.1,0.1,0.4,0.7l2.2,4.3
	h-3l-2-4.4h-1.6v4.4h-2.8V237.1z M457.1,242.7c1.1,0,1.7-0.7,1.7-1.8c0-1.1-0.6-1.7-1.7-1.7h-1.6v3.5H457.1z"/>
</svg>
