<?xml version="1.0" encoding="utf-8"?>
<!-- Generator: Adobe Illustrator 19.0.0, SVG Export Plug-In . SVG Version: 6.00 Build 0)  -->
<svg version="1.1" id="layer" xmlns="http://www.w3.org/2000/svg" xmlns:xlink="http://www.w3.org/1999/xlink" x="0px" y="0px"
	 viewBox="-153 -46 652 652" style="enable-background:new -153 -46 652 652;" xml:space="preserve">
<style type="text/css">
	.st0{fill:#FFE600;}
</style>
<polygon class="st0" points="305.4,300.3 374.6,226.3 450.6,295.5 430,300.3 430,361.7 321.6,354.6 321.6,302.3 "/>
<path d="M374.7,233.7c-0.3,0.1-0.6,0.4-0.9,0.5c-0.3,0-0.6,0.3-0.9,0.5c-0.3,0.3-0.5,0.6-0.8,0.7c-0.3,0.2-0.6,0.3-0.8,0.6
	c-0.3,0.2-0.6,0.3-0.7,0.8c-0.3,0.1-0.6,0.1-0.8,0.4c-0.3,0.2-0.5,0.4-0.8,0.8c-0.3,0.1-0.6,0.4-0.8,0.7c-0.2,0.5-0.5,0.7-0.8,0.8
	c-0.1,0.2-0.2,0.4-0.4,0.4c-0.1,0-0.2,0.4-0.4,0.5c-0.3,0.3-0.5,0.4-0.8,0.7c-0.2,0.1-0.4,0.4-0.7,0.4c-0.2,0.4-0.4,0.4-0.6,0.9
	c-0.2,0.3-0.4,0.6-0.6,0.7c-0.2,0.2-0.4,0.6-0.6,0.8c-0.2,0.1-0.4,0.4-0.6,0.4c-0.1,0.5-0.4,0.6-0.5,0.8c-0.2,0.5-0.4,0.7-0.6,1.1
	c-0.2,0-0.5,0.2-0.6,0.7c-0.2,0.2-0.5,0.3-0.7,0.7c-0.2,0.4-0.4,0.6-0.6,0.8c-0.2,0.3-0.5,0.4-0.7,0.4c-0.1,0.3-0.2,0.3-0.3,0.7
	c-0.1,0.2-0.2,0.2-0.3,0.6c-0.2,0.2-0.5,0.2-0.7,0.4c-0.1,0.2-0.2,0.5-0.3,0.6c-0.1,0-0.2,0.3-0.3,0.4c-0.2,0.3-0.5,0.4-0.7,0.8
	c-0.2,0.2-0.5,0.4-0.7,0.5c-0.1,0.2-0.2,0.4-0.3,0.5c-0.1,0.2-0.2,0.4-0.3,0.5c-0.2,0.3-0.5,0.3-0.7,0.7c-0.2,0.4-0.5,0.5-0.7,0.8
	c-0.1,0.1-0.2,0.4-0.3,0.5c-0.1,0.1-0.2,0.3-0.4,0.4c-0.2,0.2-0.5,0.5-0.7,0.9c-0.2,0.2-0.5,0.2-0.8,0.4c-0.2,0.4-0.4,0.6-0.7,1
	c-0.2,0.2-0.4,0.7-0.7,0.8c-0.2,0.3-0.5,0.5-0.7,0.8c-0.3,0.1-0.4,0.6-0.7,0.8c-0.2,0.3-0.5,0.4-0.7,0.6c-0.2,0.3-0.4,0.5-0.6,1
	c-0.3,0-0.5,0.3-0.7,0.9c-0.3,0-0.5,0.2-0.7,0.7c-0.2,0.3-0.5,0.6-0.7,0.8c-0.2,0.2-0.5,0.5-0.7,0.8c-0.3,0.1-0.5,0.3-0.8,0.5
	c-0.2,0.5-0.4,0.9-0.7,0.9c-0.2,0.5-0.4,0.8-0.7,0.8c-0.2,0.2-0.4,0.5-0.7,0.7c-0.1,0.4-0.3,0.5-0.4,1c-0.2,0.2-0.4,0.4-0.5,0.6
	c-0.2,0.2-0.4,0.2-0.6,0.7c-0.2-0.1-0.4,0.2-0.6,0.5c-0.2,0-0.4,0.5-0.6,0.6c-0.3,0-0.5,0.3-0.7,0.5c-0.2,0.3-0.5,0.3-0.8,0.5
	c-0.2,0.3-0.4,0.6-0.7,0.7c-0.2,0.5-0.4,0.5-0.6,0.8c-0.2,0.2-0.3,0.3-0.5,0.5c-0.1,0.4-0.3,0.5-0.5,0.7c-0.2,0-0.3,0.4-0.5,0.6
	c-0.2,0.2-0.3,0.4-0.5,0.7c-0.2,0.2-0.3,0.4-0.5,0.5c-0.2,0.3-0.4,0.4-0.5,0.7c-0.2,0-0.3,0.3-0.5,0.4c-0.1,0.1-0.3,0.3-0.4,0.6
	c-0.1,0.1-0.3,0.3-0.4,0.5c-0.2,0.1-0.3,0.3-0.4,0.5c-0.1,0.2-0.3,0.3-0.4,0.7c-0.2,0-0.3,0.3-0.5,0.5c-0.3,0.1-0.5,0.5-0.8,0.7
	c-0.3,0.1-0.5,0.6-0.8,0.8c-0.2,0.4-0.5,0.8-0.7,0.9c-0.3,0.2-0.5,0.4-0.8,0.5c-0.2,0.4-0.5,0.8-0.7,0.9c-0.2,0.4-0.5,0.7-0.7,0.8
	c-0.2,0.4-0.5,0.7-0.7,0.8c-0.1,0.2-0.2,0.3-0.3,0.6c-0.1,0.1-0.3,0.1-0.4,0.5c-0.2,0.2-0.5,0.5-0.8,0.7c-0.1,0.2-0.2,0.4-0.3,0.8
	c-0.1,0.1-0.3,0.1-0.4,0.3c-0.3,0.1-0.5,0.3-0.8,0.7c-0.2,0-0.3,0.2-0.4,0.5c-0.1,0.2-0.2,0.4-0.4,0.4c-0.3,0.1-0.5,0.4-0.7,0.8
	c-0.2,0.4-0.5,0.5-0.7,0.8c-0.3,0.2-0.5,0.5-0.7,0.8c-0.2,0.4-0.5,0.4-0.7,0.7c-0.2,0.4-0.5,0.7-0.7,1c-0.3,0.2-0.5,0.6-0.7,0.8
	c-0.2,0.4-0.5,0.6-0.7,0.8c-0.3,0.2-0.5,0.4-0.7,0.8c-0.2,0.3-0.5,0.5-0.8,0.8c-0.2,0.3-0.5,0.7-0.7,0.9c-0.3,0.2-0.5,0.5-0.8,0.8
	c-0.9,0.9-1.8,1.9-2.7,2.8c-0.3,0.3-0.6,0.6-0.9,0.9c-0.3,0.3-0.6,0.6-1,0.9c-0.4,0.4-0.6,0.6-0.8,0.8c-0.4,0.4-0.7,0.6-1.1,0.9
	c-0.2,0.1-0.5,0.2-0.9,0.4c-0.4,0.2-0.7,0.1-1,0.1c-0.4,0-0.8,0.1-1.3,0.2c-0.1-0.4-0.3-0.7-0.9-0.5c-0.2-0.3-0.6-0.5-0.9-0.8
	c-0.5-0.1-1.1-0.1-1.1-0.7c-0.3-0.3-0.6-0.5-1-0.6c0-0.5-0.4-0.6-0.5-1.1c-0.1-0.4-0.4-0.7-0.5-1c-0.2-0.3-0.1-0.7-0.3-1
	c0.1-0.5,0-0.8-0.2-1c0.3-0.6,0.4-1,0.5-1.3c0.1-0.4,0.5-0.7,0.6-0.9c0.4-0.3,0.7-0.6,1.2-1.1c0.3-0.2,0.8-0.7,0.9-0.9
	c0.6-0.5,0.8-0.8,1.3-1.1c0.6-0.4,0.7-0.6,0.9-0.9c0.3-0.3,0.8-0.7,1.1-1c0.4-0.3,0.6-0.6,0.7-0.9c0.6-0.4,1-0.8,1.2-1.1
	c0.1-0.3,0.7-0.7,0.9-1c0.3-0.3,0.4-0.6,1-1c0.1-0.3,0.3-0.6,0.8-1c0.2-0.3,0.6-0.7,0.6-1c0.3-0.4,0.7-0.7,1-1.1
	c0.3-0.4,0.4-0.7,0.9-1.1c0.2-0.3,0.2-0.6,1-1.1c-0.2-0.2,0-0.6,0.6-1c0.4-0.4,0.9-0.7,1.3-1.1c0.2-0.3,0.5-0.6,0.5-0.9
	c0.5-0.4,0.4-0.6,1.2-1c-0.2-0.2,0.4-0.6,0.8-0.9c0.2-0.3,0.6-0.6,0.5-0.8c1-0.5,0.7-0.7,1-1c0.6-0.5,1-0.8,1.1-1.2
	c0.4-0.3,0.3-0.4,0.6-0.6c0.7-0.3,0.5-0.4,0.8-0.7c0.1-0.3,0.6-0.8,0.8-1.1c0.5-0.5,0.9-0.9,1.2-1.3c0.2-0.2,0.3-0.4,0.6-0.6
	c0.2-0.2,0.2-0.4,0.7-0.7c0.2-0.4,0.5-0.7,0.9-1.2c0.2-0.4,0.6-0.8,0.7-1.1c0.4-0.4,0.7-0.8,0.9-1.2c0.4-0.3,0.5-0.5,0.7-0.7
	c0.2-0.2,0.4-0.4,0.7-0.7c0.1-0.3,0.8-0.8,0.9-1.1c0.3-0.3,0.7-0.7,0.8-1c0.5-0.4,0.8-0.7,1.1-1.1c0.3-0.4,0.4-0.6,0.8-1
	c0.3-0.3,0.8-0.7,0.8-1c0.3-0.3,0.8-0.7,1-1.1c0.2-0.3,0.5-0.6,0.8-1c0.4-0.4,0.7-0.7,1.1-1.1c0.2-0.3,0.4-0.6,0.7-0.9
	c0.3-0.4,0.7-0.7,1-1c0.2-0.3,0.5-0.6,0.8-1c0.4-0.4,0.7-0.8,1.1-1.2c0-0.3,0.5-0.8,1.1-1.3c0.1-0.2,0.3-0.4,0.5-0.6
	c0.3-0.3,0.5-0.5,0.6-0.7c0.2-0.4,0.6-0.8,0.8-1.1c-0.1-0.2,0.3-0.6,0.9-1.1c0.2-0.3,0.5-0.7,0.7-1c0.5-0.4,0.5-0.7,0.6-0.9
	c0.7-0.5,1.2-0.9,1.1-1.1c0.4-0.4,0.5-0.6,0.8-0.9c0.9-0.6,0.6-0.6,1.2-1.1c0.5-0.4,0.6-0.6,1.1-1.1c0.3-0.3,0.2-0.5,0.6-0.9
	c0.4-0.4,0.7-0.7,1-1.1c0.5-0.4,0.6-0.7,0.8-1c0.3-0.4,0.7-0.7,1.1-1.2c0.1-0.3,0.4-0.6,0.6-1c0.4-0.4,0.6-0.7,1.1-1.1
	c0.1-0.3,0.1-0.5,0.8-1c0.3-0.4,0.7-0.7,0.8-1c0.4-0.4,0.6-0.7,1-1.1c0.5-0.4,0.7-0.7,1.2-1.2c0.3-0.3,0.7-0.7,0.9-1
	c0.6-0.4,0.8-0.7,1.2-1.1c0.5-0.4,1-0.8,1.3-1.1c0.2-0.3,0.7-0.7,1.2-1c0.3-0.3,0.7-0.6,1.1-1c0.4-0.3,0.8-0.7,1.3-1
	c0.4-0.3,0.9-0.7,1.3-1c0.4-0.3,0.8-0.6,1.2-0.9c0.4-0.3,0.8-0.6,1.2-0.9c0.4-0.3,0.8-0.5,1.2-0.8c0.4-0.3,0.8-0.5,1.2-0.8
	c0.4-0.2,0.8-0.5,1.3-0.7c0.4-0.2,0.8-0.4,1.2-0.7c0.4-0.2,0.9-0.4,1.3-0.6l0.2-0.1c0,0-0.1,0,0.3-0.2c0.2-0.1,0.9-0.3,0.7-0.3
	c-0.5,0.2,0,0,0.6-0.2c-0.4,0.1,0.1,0,0.1,0c0.1,0,0.4-0.1,0.2,0c1-0.3,0.7-0.2,0.8-0.1c0.4-0.1,0.3,0,0.7,0c-0.1,0.1,0.3,0,0.3,0
	c0.3-0.1,0.5,0,0.8-0.1c-0.1,0.1,0.2,0.2,0.7,0.2c-0.2,0.2,0.2,0.2,0.3,0.2c0.1,0.1,0.3,0.1,0.3,0.3c0.1,0.1,0.3,0.2,0.4,0.3
	c-0.1,0.2,0,0.3-0.2,0.5c0.1,0.1,0.1,0.3,0.1,0.4c0.1,0.1,0.2,0.2-0.1,0.5c0,0.2,0.2,0.2,0.5,0.3c0.1,0.1,0.4,0.2,0.2,0.4
	c0,0.2-0.2,0.5,0.4,0.5c-0.3,0.2-0.4,0.4-0.4,0.7c0.2,0,0.2,0.2,0.4,0.2c0.1,0.1,0.2,0.2,0.4,0.3c-0.3,0.1-0.2,0.2-0.1,0.6
	c0.2,0.2,0,0.3,0.2,0.5c0.1,0.1,0.3,0.1,0.2,0.4c0.3,0.1,0.1,0.4,0.2,0.6c0.1,0.1-0.1,0.1,0,0.5c-0.1,0.2-0.2,0.3-0.3,0.5
	c-0.1,0.2-0.1,0.3-0.3,0.4c-0.2,0.2-0.2,0.3-0.4,0.4c0.2,0.3,0,0.3-0.2,0.7c-0.2,0-0.1,0.3-0.3,0.3c0.2,0,0.3,0.1,0.3,0.3
	c0.2,0,0.4,0.1,0.4,0.1c0.5,0.1,0.7,0.4,0.8,0.3c0,0.1,0.4,0.3,0.4,0.3c0.1-0.1,0.3,0.3,0.4,0.2c0,0.1,0.2,0.1,0.4,0.1
	c0,0.1,0.1,0.3,0.3,0.5c0.2-0.1,0.6,0.1,0.6,0.2c0.5,0.1,0.6,0.4,0.8,0.5c0.1-0.1,0.5,0.3,0.6,0.3c0.3,0.2,0.4,0.2,0.6,0.4
	c0.2,0.2,0.4,0.2,0.6,0.3c0.4,0.4,0.5,0.4,0.9,0.8c0.1,0,0.2-0.1,0.5,0.1c0.2,0.1,0.6,0.5,0.7,0.5c0.2,0.2,0.5,0.4,0.7,0.5
	c0.3,0.3,0.4,0.2,0.7,0.4c0.3,0.2,0.5,0.3,0.7,0.6c0.2,0.1,0.4,0.2,0.6,0.3c0.3,0.3,0.4,0.3,0.7,0.6c0.1-0.1,0.3,0.1,0.7,0.5
	c0.2,0.1,0.3,0,0.5,0.2c0.2,0.2,0.4,0.4,0.5,0.4c0.1,0.1,0.3,0.2,0.3,0.2c0.3,0.4,0.5,0.4,0.6,0.3c0.3,0.2,0.6,0.6,0.6,0.3
	c0.2,0.2,0.3,0.3,0.5,0.5c0.1,0.1,0.2,0.2,0.3,0.2c0.2,0.2,0.4,0.3,0.6,0.5c0.2,0.2,0.4,0.2,0.6,0.4c0.1,0.1,0.2,0.2,0.4,0.3
	c0.1,0,0.3,0.2,0.3,0.2c0.2,0.1,0.5,0.4,0.7,0.5c0.2,0.2,0.2,0.2,0.4,0.4c0.2,0.2,0.1,0,0.3,0.2c0.2,0.1,0.4,0.3,0.6,0.4
	c0.2,0.1,0.5,0.5,0.6,0.4c0.3,0.3,0.3,0.4,0.4,0.3c0.1,0,0.2,0.2,0.5,0.6c0-0.2,0.3,0.1,0.5,0.3c0.1,0.1,0.2,0.1,0.4,0.4
	c0-0.1,0.2,0.1,0.2,0c0.1,0.1,0.2,0.1,0.3,0.2c0.1,0,0.2,0.1,0.4,0.3c0.1,0.1,0.3,0.2,0.3,0.2c0.2,0.2,0.2,0.1,0.4,0.3
	c0,0,0.2,0.2,0.3,0.2c0.1,0,0.2,0.2,0.5,0.5c0.1,0,0.4,0.2,0.6,0.4c0.2,0.1,0.3,0.1,0.5,0.2c0.1,0.1,0.3,0.2,0.4,0.3
	c0.1,0.1,0.2,0.2,0.3,0.3c0.2,0.2,0.4,0.2,0.5,0.3c0.2,0.2,0.4,0.4,0.7,0.6c0.3,0.3,0.5,0.4,0.6,0.5c0.1,0,0.4,0.3,0.5,0.2
	c0.3,0.4,0.5,0.4,0.6,0.5c0.3,0.2,0.5,0.4,0.7,0.6c0.3,0.2,0.4,0.3,0.6,0.4c0.1,0,0.2,0.1,0.4,0.3c0.1,0.1,0.3,0.3,0.5,0.4
	c0.1-0.1,0.3,0.1,0.6,0.3c0.1,0,0.5,0.4,0.7,0.6c0.2,0.1,0.4,0.3,0.7,0.5c0.1,0,0.4,0.2,0.6,0.4c0.2,0.1,0.4,0.4,0.6,0.4
	c0.2,0.1,0.4,0.4,0.6,0.5c0.1,0.1,0.2,0.2,0.3,0.2c0.1,0.1,0.2,0.2,0.3,0.3c0.1,0,0.3,0.2,0.5,0.4c0.2,0.2,0.3,0.3,0.4,0.4
	c0.1,0.1,0.2,0.2,0.4,0.3c0.2,0.2,0.3,0.2,0.6,0.5c0.1,0,0.4,0.3,0.5,0.4c0,0,0.2,0.2,0.3,0.3c0.2,0.2,0.3,0.3,0.3,0.2
	c0.2,0.1,0.5,0.5,0.6,0.5c0.3,0.4,0.4,0.3,0.5,0.4c0.2,0.2,0.3,0.4,0.5,0.5c0.1,0,0.2,0.2,0.3,0.3c0.2,0.2,0.4,0.4,0.5,0.4
	c0.3,0.3,0.5,0.6,0.7,0.6c0.1-0.1,0.4,0.4,0.6,0.5c0.1,0.1,0.3,0.3,0.5,0.3c0.1,0.2,0.2,0.3,0.5,0.6c-0.2-0.4,0-0.1,0.3,0.3
	c0-0.2,0.3,0.2,0.4,0.3c0.1,0.1,0.2,0.2,0.3,0.3l0.4,0.4c0.1,0.1,0.4,0.4,0.5,0.4c0.3,0.4,0.4,0.3,0.6,0.5c0-0.1,0.3,0.2,0.5,0.4
	c0.3,0.4,0.4,0.5,0.4,0.4c0.2,0.3,0.2,0.2,0.3,0.3c0.1,0,0.2,0.1,0.5,0.5c0.1,0.1,0.3,0.2,0.5,0.4c0.3,0.4,0.3,0.4,0.3,0.3
	c0.1,0.1,0.4,0.5,0.4,0.5c0.2,0.2,0.5,0.5,0.4,0.3c0.2,0.2,0.3,0.4,0.4,0.5c0.1,0.1,0.1,0.1,0.3,0.3c0.1,0,0.3,0.1,0.5,0.4
	c0.1,0.1,0.3,0.3,0.3,0.3c0.1,0.1,0.3,0.3,0.3,0.3c0.1,0.1,0.2,0.2,0.5,0.6c0-0.1,0.1,0,0.2,0.1c0.3,0.4,0.4,0.4,0.6,0.5
	c0.1,0.1,0.3,0.3,0.5,0.4c0.1,0.2,0.1,0.1,0.3,0.3c0.1,0,0.1,0.1,0.2,0.2c0.1,0.1,0.2,0.1,0.4,0.4c0.1,0.1,0.2,0.2,0.2,0.2
	c0-0.1,0.5,0.5,0.3,0.1c0.3,0.5,0.3,0.4,0.5,0.6c0,0,0.2,0.2,0.5,0.5c-0.1-0.2,0.1,0,0-0.2c0.2,0.3,0.3,0.4,0.5,0.6
	c0-0.1,0.4,0.4,0.4,0.2c0.4,0.5,0.5,0.6,0.7,0.8c0-0.1,0.1,0,0.2,0.1c0.1,0.1,0.2,0.2,0.4,0.5c0-0.1,0.3,0.2,0.5,0.4
	c0.2,0.2,0.3,0.3,0.6,0.5c0.2,0.2,0.2,0.2,0.3,0.3c0.1,0.1,0.3,0.3,0.4,0.5c0.1,0,0.4,0.5,0.4,0.2c0.2,0.3,0.4,0.4,0.4,0.4
	c0.2,0.2,0.2,0.3,0.3,0.4c0.1,0,0.4,0.3,0.4,0.3c0.3,0.5,0.4,0.5,0.5,0.6c0-0.1,0.3,0.4,0.4,0.4c0.1,0,0.3,0.2,0.3,0.2
	c0.2,0.3,0.2,0.2,0.5,0.6c0-0.1,0.1,0.1,0.2,0.2c0.1,0.1,0.5,0.5,0.5,0.5c0.1,0.1,0.2,0.3,0.3,0.4c0.1,0.1,0.2,0.2,0.3,0.3
	c0.2,0.2,0.4,0.4,0.4,0.4c0.4,0.6,0.5,0.6,0.6,0.6c0.2,0.2,0.4,0.5,0.4,0.5c0.3,0.4,0.2,0.3,0.4,0.5c0.2,0.2,0.2,0.2,0.4,0.4
	c0.1,0,0.2,0.3,0.3,0.3c0,0,0.1,0,0.1,0c0.3,0.4,0.1,0.1,0.4,0.5c0,0,0.2,0.2,0.3,0.4c0.1,0,0.2,0.2,0.3,0.4
	c-0.1-0.2,0.1,0.1,0.3,0.3c0,0,0.1,0,0.2,0.2c0.2,0.4,0.3,0.5,0.4,0.5c0.1,0.1,0.4,0.5,0.4,0.4c0.1,0.1,0.3,0.4,0.3,0.4
	c0-0.1,0.1,0.1,0.2,0.1c0.1,0.1,0.3,0.4,0.2,0.1c0.3,0.4,0.3,0.5,0.4,0.6c0-0.1,0.1,0,0.4,0.4c0.2,0.3,0.3,0.5,0.3,0.4
	c0.3,0.5,0.2,0.2,0.2,0.3c0.1,0.1,0.3,0.4,0.4,0.5c0.1,0.1,0.3,0.4,0.2,0.2c0.1,0.2,0.1,0,0.3,0.4c0,0,0.1,0.1,0.3,0.4
	c-0.2-0.3,0.1,0,0.3,0.2c0.1,0.1,0.3,0.5,0.2,0.2c0.1,0.1,0.2,0.2,0.5,0.7c-0.1-0.1,0.1,0.2,0.2,0.3c0,0,0,0,0.2,0.2
	c0-0.1,0.4,0.5,0.3,0.4c0.1,0.2,0.2,0.3,0.2,0.3c0.3,0.4,0.3,0.5,0.4,0.7c0.1,0.2,0.2,0.4,0,0.1c0.1,0.2,0.2,0.4,0.2,0.5
	c0.1,0.2,0.2,0.4,0.1,0.4c-0.1-0.1,0,0.1,0,0.2c0,0.1,0.1,0.2,0.2,0.6c-0.1,0-0.2,0,0,0.5c-0.1,0.1-0.2,0.1-0.2,0.4
	c0.1,0.3,0.1,0.6-0.1,0.7c-0.1,0-0.3-0.1-0.1,0.3c0,0.1-0.1,0.2-0.1,0.4c-0.1,0.2-0.1,0.6-0.3,0.7c-0.1,0.2-0.1,0.5-0.3,0.5
	c-0.2,0.1-0.1,0.5-0.4,0.4c-0.4-0.2-0.4,0.1-0.4,0.4c-0.2,0.1-0.2,0.4-0.4,0.4c-0.2,0-0.3,0.2-0.4,0.5c-0.3-0.2-0.4-0.3-0.5-0.2
	c-0.2-0.1-0.3,0-0.3,0.2c-0.2,0.1-0.5,0-0.5,0.4c-0.4-0.2-0.4,0.2-0.7,0.1c-0.1,0-0.3-0.1-0.5-0.2c-0.1,0-0.3,0-0.5-0.2
	c0,0.2-0.2,0.3-0.3,0.4c-0.2-0.1-0.4-0.1-0.6-0.1c-0.2-0.1-0.4,0-0.5-0.1c-0.2,0-0.3,0-0.4,0.1c-0.3-0.2-0.6-0.1-0.9-0.3
	c-0.3,0-0.5-0.1-0.7,0c-0.3-0.1-0.5-0.3-0.7-0.1c-0.2-0.1-0.3-0.2-0.5-0.3c-0.1-0.1-0.3-0.2-0.4-0.2c-0.2,0-0.5-0.3-0.7-0.3
	c-0.2,0-0.5,0-0.9-0.4c-0.1,0.1-0.4-0.2-0.5-0.4c-0.1,0.1-0.2,0.2-0.3,0.2c-0.1,0.1-0.4-0.2-0.5-0.1c-0.4-0.5-0.4-0.1-0.6-0.2
	c-0.3-0.1-0.4,0.3-0.7,0c-0.2-0.1-0.4-0.1-0.6-0.1c-0.1,0.2-0.4-0.2-0.6-0.4c-0.1-0.1-0.1,0.3-0.3-0.2c-0.1-0.1-0.2-0.2-0.3-0.4
	c-0.2-0.3-0.1-0.2-0.1-0.2c-0.1-0.1-0.2-0.4-0.2-0.4c-0.2-0.3-0.3-0.5-0.4-0.4c-0.2-0.3-0.5-0.8-0.4-0.5c-0.1-0.2-0.2-0.3-0.4-0.6
	c-0.1-0.2-0.3-0.5-0.1-0.1c0,0-0.2-0.3-0.3-0.4c-0.1-0.1-0.2-0.2-0.3-0.4c0,0.1,0,0.1-0.2-0.2c0,0.1-0.2-0.2-0.3-0.4
	c-0.2-0.4-0.2-0.3-0.3-0.4c-0.2-0.4-0.2-0.4-0.4-0.6c0,0.1-0.3-0.4-0.4-0.3c0,0.1-0.3-0.5-0.2-0.1c-0.2-0.3-0.2-0.2-0.3-0.4
	c-0.1-0.2-0.2-0.2-0.3-0.5c-0.1-0.1-0.1,0.1-0.4-0.6c0.1,0.4-0.2,0-0.2,0.1c-0.2-0.3-0.3-0.5-0.3-0.3c-0.1-0.2-0.1-0.1-0.2-0.3
	c0-0.1-0.2-0.3-0.3-0.5c0.1,0.4-0.1,0.1-0.4-0.3c-0.1-0.2,0,0.2-0.2-0.1c-0.1-0.1-0.2-0.2-0.3-0.4c-0.1-0.2-0.3-0.5-0.3-0.3
	c-0.1-0.2-0.2-0.2-0.4-0.6c0,0.1,0,0.2-0.1,0.1c-0.1-0.2-0.2-0.3-0.4-0.6c0,0.1-0.1,0-0.1,0.1c-0.2-0.4-0.4-0.6-0.4-0.7
	c-0.2-0.2-0.1,0.1-0.3,0c-0.2-0.4-0.4-0.7-0.4-0.5c-0.2-0.3-0.3-0.4-0.4-0.5c0,0.1-0.3-0.3-0.4-0.4c-0.2-0.2-0.2-0.1-0.4-0.5
	c-0.1,0-0.4-0.5-0.4-0.4c-0.2-0.3-0.3-0.4-0.5-0.5c-0.2-0.4-0.2-0.2-0.4-0.4c-0.1,0-0.3-0.3-0.5-0.6c-0.1-0.1-0.2-0.2-0.5-0.5
	c-0.2-0.2-0.1,0.1-0.5-0.4c-0.1-0.1-0.4-0.4-0.5-0.4c-0.1-0.1-0.2-0.2-0.3-0.3c-0.1-0.1-0.2-0.2-0.4-0.5c0,0-0.1,0.1-0.2-0.1
	c-0.1-0.1-0.2-0.2-0.4-0.5c-0.1,0-0.4-0.4-0.6-0.6c-0.2-0.1-0.4-0.3-0.6-0.5c-0.2-0.2-0.2-0.3-0.4-0.4c-0.1-0.1-0.2-0.2-0.3-0.3
	c-0.2-0.3-0.4-0.4-0.6-0.6c-0.1-0.1-0.2-0.1-0.3-0.2c-0.2-0.3-0.3-0.4-0.4-0.5c-0.1,0-0.3-0.2-0.5-0.3c-0.3-0.6-0.4-0.6-0.5-0.7
	c-0.1-0.1-0.2-0.1-0.4-0.5c-0.1,0-0.3-0.2-0.5-0.5c-0.1,0-0.1,0.1-0.2,0c-0.2-0.4-0.1-0.1-0.3-0.4c-0.1,0-0.4-0.5-0.5-0.5
	c-0.2-0.2-0.4-0.4-0.5-0.5c-0.3-0.4-0.5-0.7-0.6-0.7c-0.1,0-0.4-0.4-0.6-0.7c-0.1,0-0.3-0.1-0.4-0.2c-0.2-0.2-0.4-0.4-0.7-0.8
	c-0.2-0.2-0.4-0.3-0.5-0.2c0,0.1-0.3-0.3-0.4-0.4c-0.2-0.3-0.3-0.4-0.3-0.3c-0.3-0.4-0.5-0.6-0.5-0.2c-0.3-0.5-0.6-0.8-0.7-0.8
	c-0.2-0.1-0.4-0.5-0.7-0.7c-0.1,0-0.3-0.1-0.5-0.3c-0.1,0-0.2,0.1-0.5-0.4c-0.2-0.2-0.2-0.3-0.4-0.6c-0.1-0.1-0.1,0-0.3-0.2
	c-0.1,0.1-0.2,0.1-0.4-0.1c-0.1-0.2-0.3-0.3-0.4-0.5c0,0.1-0.2-0.1-0.4-0.5c-0.1,0.1-0.3-0.2-0.5-0.4c-0.2-0.2-0.3-0.1-0.4-0.1
	c-0.2-0.2-0.3-0.4-0.5-0.7c0,0.1-0.2,0-0.3-0.1c-0.1,0-0.3-0.3-0.4-0.4c-0.2-0.2-0.3-0.2-0.4-0.3c-0.2-0.2-0.3-0.3-0.4-0.4
	c-0.1-0.2-0.3-0.3-0.4-0.4c-0.3-0.5-0.5-0.6-0.6-0.6c-0.2-0.2-0.3-0.1-0.6-0.5c-0.2-0.2-0.4-0.4-0.5-0.4c-0.1-0.2-0.3-0.4-0.3-0.3
	c-0.1-0.1-0.2-0.1-0.3-0.4c-0.2-0.2-0.4-0.4-0.6-0.4c-0.1-0.1-0.3-0.3-0.3-0.4c-0.1-0.1-0.2-0.1-0.4-0.4c-0.1,0-0.2,0.2-0.5-0.2
	c-0.2-0.3-0.6-0.7-0.6-0.5c-0.3-0.4-0.5-0.4-0.5-0.3c-0.2-0.2-0.3-0.4-0.4-0.4c-0.1,0-0.2-0.2-0.3-0.2c-0.2-0.2-0.4-0.3-0.5-0.2
	c-0.3-0.4-0.3-0.2-0.7-0.6c-0.2-0.1-0.4-0.3-0.7-0.6c0,0.1-0.1,0.1-0.2-0.1c-0.2-0.2-0.2-0.2-0.5-0.6c-0.1,0.2-0.4-0.2-0.4,0
	c-0.2-0.1-0.5-0.5-0.7-0.7c-0.1,0.1-0.2,0.1-0.5-0.2c-0.3-0.4-0.4-0.3-0.7-0.7c-0.2-0.1-0.4-0.3-0.6-0.4c-0.2-0.2-0.3-0.2-0.5-0.2
	c-0.1-0.1-0.3-0.4-0.4-0.4c-0.2-0.4-0.2-0.1-0.3-0.3c-0.2-0.2-0.3-0.1-0.7-0.6c-0.2-0.2-0.4-0.2-0.7-0.5c-0.3-0.4-0.4-0.3-0.7-0.6
	c-0.1,0.1-0.3,0.1-0.5-0.2c-0.2-0.3-0.2-0.2-0.4-0.4c-0.1,0-0.1,0-0.3-0.3c-0.2-0.1-0.5-0.5-0.6-0.4c-0.1,0-0.5-0.5-0.6-0.5
	c0,0.1-0.2-0.1-0.3-0.2c-0.1-0.1-0.2-0.2-0.4-0.3c-0.2-0.2-0.5-0.5-0.7-0.6c0,0.1-0.2-0.1-0.3-0.2c-0.1-0.1-0.3-0.3-0.4-0.4
	c-0.2-0.1-0.4-0.3-0.5-0.1c-0.1-0.1-0.2-0.2-0.3-0.2c-0.1-0.1-0.2-0.2-0.4-0.5c-0.2-0.2-0.4-0.2-0.5-0.1c-0.4-0.7-0.4-0.2-0.7-0.7
	c-0.3-0.3-0.4-0.3-0.6-0.5c-0.2,0-0.3-0.1-0.7-0.5c-0.1,0.1-0.2,0.1-0.6-0.3c-0.3-0.3-0.4-0.2-0.6-0.4c-0.3-0.3-0.4-0.2-0.5-0.2
	c-0.3-0.4-0.4-0.2-0.8-0.8c-0.2,0-0.5-0.3-0.6-0.2c-0.3-0.3-0.6-0.6-0.7-0.5c-0.1-0.1-0.3-0.2-0.4-0.3c0,0.1-0.3-0.4-0.5-0.6
	c0,0.1,0,0.4-0.4-0.4c0.1,0.4-0.1,0-0.2,0c-0.2-0.3-0.3-0.3-0.2,0.1c-0.1-0.1-0.3-0.3-0.5-0.6c0,0.3-0.4-0.1-0.6-0.4
	c-0.1-0.1-0.3-0.1-0.2-0.3c-0.2,0.2-0.6-0.4-0.8-0.5c0-0.4-0.1,0.1-0.2-0.3c-0.3,0.2-0.2-0.3-0.4-0.6c-0.3,0.1-0.2,0.1-0.5-0.5
	c-0.1,0-0.2,0.1,0,0.1c0-0.2-0.4-0.1-0.4-0.6c0-0.2-0.1,0.1-0.1-0.4c0.3,0.2,0-0.1,0.2,0.2c-0.4-0.4-0.1-0.4-0.2-0.5
	c0-0.2-0.1-0.3-0.2-0.1c0-0.4,0.4-0.2,0-0.6c0-0.4,0-0.2,0-0.6c0.2,0.1-0.1-0.2-0.1-0.4c0.2,0.1,0.7-0.2,0.3-0.8
	C375,233.6,374.6,233.5,374.7,233.7 M402.3,332.8c-0.1-0.5-0.1-0.8-0.1-1.1c0,0,0-0.4-0.1-1.4c0-0.4,0-0.6-0.1-1.1
	c0-0.3,0-0.5-0.1-1c0-0.2-0.1-0.9-0.1-1.4c0-0.4-0.1-0.9-0.1-1.4c0-0.2-0.1-0.7-0.1-1.2c-0.1-0.4-0.1-0.9-0.2-1.5
	c-0.1-0.2-0.2-0.7-0.3-1.1c-0.1-0.4-0.2-0.9-0.4-1.3c-0.1-0.4-0.2-0.7-0.3-1.1c-0.8-2.5-1.4-5.1-2.9-7.3c-2.6-3.8-5.3-7.5-9.1-10.6
	c-2.1-1.8-4.3-3.4-6.9-4.7c-3.4-1.7-7.1-1.3-10.6-0.9c-6.5,0.8-12,3.4-16.9,7.2c-4.5,3.4-7.4,7.7-9.3,12.5
	c-1.4,3.5-2.6,7.1-2.8,10.9c-0.1,1.6-0.3,3.3-0.4,4.9c-0.6,6.1-0.9,12.1-1.1,18.2v0.6c0,0.2,0,0.4,0,0.6c0,0.2,0,0.3,0,0.6
	c0,0.2,0,0.4,0,0.5c0,0,0,0.3,0,0.6c0,0.3,0,0.3,0,0.5c0,0.4,0,0.5,0,0.5c0,0.4,0,0.7,0,0.7c0,0.2,0,0.5,0,0.4c0,0,0,0.2,0,0.4
	c0,0.1,0,0.4,0,0.3c0,0.2,0-0.1-0.1,0c0,0.1,0,0.7-0.1,0.7c0,0.2,0,0.3,0,0.2c0,0.2,0,0.3,0,0.6c0-0.3,0-0.1-0.1,0
	c0,0.4,0,0.4,0,0.7c0-0.6,0-0.4,0.1,0.1c0.1,0.7,0.1,0.7,0.2,0.5c0.1,0.5,0.1,0,0.2,0.8c0.1-0.1,0.1,0,0.2,0.2
	c0.1-0.1,0.3,0,0.5-0.1c0,0.4,0.1,0.5,0.1,0.7c0.1,0.3,0.1,0.2,0.1,0.5c0.1,0.1,0.2,0.2,0.2,0.1c0.2-0.1,0.3,0.1,0.5,0.5
	c0.2,0,0.3-0.4,0.5,0.2c0.2,0.1,0.4-0.1,0.6,0.5c0.2,0.3,0.4,0.6,0.6,0.5c0.2,0,0.4,0.4,0.6,0.4c0.2,0.1,0.4,0.3,0.7,0.5
	c0.2,0.2,0.5,0.2,0.7,0.3c0.2-0.1,0.5,0.5,0.7,0.1c0.1,0.2,0.2,0.2,0.4,0.4c0.1-0.1,0.3,0,0.4,0c0.1,0.2,0.3,0.3,0.4,0.5
	c0.1-0.1,0.3-0.1,0.4-0.1c0.3,0.3,0.5,0.3,0.8,0.3c0.3,0,0.6,0.1,0.8,0.2c2,0.3,3.9-0.7,4.7-2.2c0.2-0.3,0.3-0.5,0.4-0.8
	c0-0.4,0.1-0.6,0-1.1c0,0.4,0,0.2,0-0.1c0-0.1,0-0.3-0.1-0.7c0.1-0.2,0.1,0.1,0.1-0.1c0,0.2,0-0.5,0-0.6c-0.1-0.8,0,0.2-0.1-0.9
	c0.1,0.3,0.2,0.8,0.1-0.1c0.1,0.6,0-0.3,0-0.3c-0.1-0.7-0.1-0.9,0-0.6c-0.1-0.4,0-0.4,0-0.5c0.1,0.2,0,0,0.1-0.3c0-0.4,0-0.3,0,0
	c0-0.3-0.1-0.6,0-0.5c0-0.4,0-0.6,0-0.7c0-0.7,0-0.3-0.1-0.8c0.1,0.2,0.2,0.2,0.1-0.9c0.1,0.6,0.2,0,0.1-0.5c0,0.3-0.1-1.9,0-1.9
	c0,0.4-0.1-0.4,0-0.4c0-0.4,0.1-0.1,0-0.4c0.1,0.4,0,0,0,0c0-0.6,0-0.1,0-0.5c0.1,0.1,0-1.2,0-1.5c0-0.1,0-0.4,0.1-0.3
	c0-0.1,0-0.3,0.1-0.1c0,0,0-0.4,0-0.5c0-0.3,0.1,0,0-0.2c0-0.4,0-0.8,0-1.3c0-0.1,0-0.5,0.1-0.4c0-0.7,0-0.8,0-1.3
	c0-0.4,0-0.7,0-1.1c0.1-2.2,0.1-4.3,0.4-6.5c0.3-3,0.3-6,1.2-8.9c0.8-2.9,1.6-5.9,3.4-8.5c1.2-1.7,2.3-3.6,3.9-4.9
	c1.7-1.4,3.5-2.6,5.5-3.5c0.5-0.2,1-0.4,1.5-0.6c0.5-0.2,1.1-0.3,1.6-0.2c0.5-0.4,1.1-0.3,1.7-0.4c0.6-0.1,1.2,0,1.8-0.3
	c0.4,0.3,0.8,0.2,1.2,0.5c0.4-0.1,0.7-0.2,1.1,0.1c0.3-0.1,0.7,0.2,1,0.3c0.3-0.1,0.6,0.1,0.8,0.3c0.3,0.5,0.6,0.7,0.8,1.2
	c0.2-0.1,0.5,0.3,0.8,0.7c0.2,0.1,0.5,0.5,0.7,1c0.2-0.1,0.4,0.2,0.6,0.6c0.2,0.1,0.4,0.4,0.6,1.1c0.2,0.1,0.3,0.6,0.5,0.9
	c0.1,0.3,0.3,0.7,0.5,1c0.1,0.3,0.3,0.8,0.4,1.1c0.1,0.4,0.3,0.7,0.4,1.1c0.4,1.1,0.7,2.2,1,3.3c0.8,2.9,0.8,5.9,0.8,8.8
	c0.1,2.7-0.6,5.5-0.2,8.2c0.5,2.9,0.6,5.8,0.9,8.7c0.1,0.4,0.1,0.9,0.2,1.5c0,0,0,0.2,0.1,0.3l0.1,0.7c0-0.2,0,0,0,0.2
	c0,0.2,0,0.3,0,0.6c0,0.4,0,0.1,0,1c0,0,0-0.1,0,0.4c0,0.3,0,0.1,0,0.3c0,0.7,0,0.1,0.1,0.9c0-0.1,0.1,0.1,0.1,0.5
	c0-0.1,0.1,0.5,0.1,0.7c0,0.1,0.1,0.2,0.1,0.5c0,0.2,0.1,0.4,0.1,0.4c0,0.1,0.1,0.6,0.1,0.7c0,0.2,0,0.4,0.1,0.6
	c0,0.4,0.1,0.7,0.1,1c0,0,0,0,0,0.1c0,0.5,0,0.4,0,0.9c0,0.2,0,0.4,0,0.2c0,0.3,0.1,0.9,0.1,0.6c0,0.5,0.1,0.7,0.1,0.4
	c0,0.3,0.1,0.6,0.1,0.4c0,0.3,0.1,0.3,0.1,0.7c0-0.6,0.2,0,0.2,0.2c0.1-0.1,0.3,0.4,0.4,0.1c0.2,0.9,0.3,0.6,0.5,0.7
	c0.2,0.5,0.4,0.5,0.6,0.6c0.2,0.1,0.4,0.1,0.6,0.4c0.1-0.1,0.3,0,0.5,0.3c0.2,0.2,0.4,0.2,0.6,0.3c0.1,0,0.4,0.3,0.5,0.1
	c0.2,0.1,0.5,0.4,0.6,0.5c0.2,0.2,0.4,0.4,0.6,0.2c0.2,0.1,0.4,0.4,0.6,0.7c0.2-0.1,0.4,0.2,0.5,0.2c0.2,0.1,0.4-0.1,0.6,0.2
	c0.2,0.4,0.4,0.3,0.6,0.4c0.2,0,0.4-0.2,0.6,0.2c0.3-0.1,0.4-0.2,0.7,0c0.2,0.1,0.4,0,0.6,0.1c0.2,0.1,0.4-0.2,0.7,0
	c0.1-0.2,0.3-0.3,0.5-0.4c0.3,0.3,0.4,0.1,0.7,0c0.3,0.1,0.5-0.2,0.7-0.3c0.2-0.2,0.4-0.2,0.6-0.5c0.2,0.1,0.4-0.2,0.5-0.5
	c0.2,0,0.4,0,0.5-0.4c0.1-0.2,0.2-0.5,0.4-0.5c0-0.3,0.1-0.5,0.1-0.7c0.1,0,0.1-0.3,0.1-0.5c0-0.2,0-0.3,0-0.4c0-0.2,0-0.5-0.1-0.7
	c0-0.1-0.1-0.5-0.1-0.6c0-0.2,0-0.3-0.1-0.5c0-0.2,0-0.3,0-0.4c0-0.1,0-0.5,0-0.6c-0.1-0.4,0-0.4,0-0.5c-0.1-0.5-0.1-0.7-0.1-0.7
	c0,0.1,0,0,0-0.3c0-0.2,0-0.4,0-0.3c-0.1-0.7-0.1-0.5-0.1-0.7c0.1,0.3,0-0.3,0-0.4c0,0.1,0-0.2,0-0.4c0,0,0-0.1-0.1-0.4
	c0.1,0.2,0-0.3,0.1-0.1c-0.1-0.5-0.1-0.5-0.1-0.7c-0.1-0.4-0.1-0.4-0.1-0.7c0,0.1,0.1,0.2,0-0.2c0-0.1-0.1-0.3-0.1-0.7
	c0.1,0.6,0.2,0.7,0.1,0.6c0-0.1,0-0.2-0.1-0.5c0.1,0.6,0.1,0.3,0.1,0.2c0,0,0,0,0,0c0-0.1-0.1-0.4-0.1-0.5c0,0,0-0.2-0.2-1.1
	c0.1,0.4,0.3,1.2,0.1,0.4c0.1,0.2,0-0.3,0,0c0-0.2,0.1,0.3,0-0.1c0,0-0.1-0.4-0.1-0.5c-0.1-0.4-0.1-0.7,0-0.3
	c-0.1-0.5-0.1-0.4-0.1-0.7c0.1,0.2,0-0.1,0-0.3c0.1,0.4,0,0.1,0-0.3c0.1,0.5,0,0,0,0c-0.1-0.5,0-0.1-0.1-0.6c0.1,0.2,0.1,0.2,0-0.2
	c0.1,0.4,0,0.2,0-0.1c-0.1-0.4-0.1-0.5-0.1-0.6c0,0,0.1,0.5,0.1,0.1c0.1,0.6,0.1,0.2,0-0.1c0,0-0.1-0.4-0.1-0.7
	c0.1,0.4,0.2,0.8,0.1,0.3c0,0.2-0.1-0.3-0.1-0.5c0.1,0.2,0,0.1,0-0.3c0.1,0.2,0.1,0.2,0,0c0,0.1,0-0.2,0-0.4c0-0.2,0-0.3-0.1-0.7
	c0,0.2,0-0.1-0.2-0.8c0.2,0.8,0.1,0.3,0,0c0,0.1-0.1-0.4-0.1-0.5c0.1,0.5,0.2,0.6,0.2,0.4c0,0.1,0-0.2,0-0.1c0-0.3,0-0.1-0.1-0.4
	c0-0.1-0.1-0.5-0.1-0.6c0.1,0.3,0.1,0.2,0,0c-0.1-0.6,0-0.2-0.1-0.8c-0.2-0.9,0.1,0.7,0.1,0.6c-0.1-0.8-0.2-1.1-0.1-0.6
	c-0.1-0.5-0.1-0.5-0.1-0.5c0-0.1,0-0.3-0.1-0.8c0.1-0.1,0-0.6,0.1-0.6c0-0.3,0-0.5,0-0.8c0,0.2,0.1,0.3,0,0.2c0-0.4,0-0.4-0.2-1.5
	c0.1,0.6,0,0.1,0-0.1c0.1,0.9,0,0.3,0-0.2c0,0,0-0.4,0-0.7c0,0.2,0.1,0.3,0-0.2c0-0.7,0-1.1,0-1c0-0.5,0-0.4,0-0.7c0-0.1,0-1.1,0-1
	c0-0.6,0.1-0.3,0.1-0.9c0-0.5,0-1,0-1.2C402.2,333.4,402.3,333.2,402.3,332.8 M315.9,349.9c0,0.6,0,1.2,0,1.8c0,1,0,2,0,3
	c0,0.2,0,0.5,0,0.8c0,0.2,0,0.4,0,0.4c0,0.5,0,0.9,0,0.8c0-0.2,0-0.1,0,0.3c0,0.1,0.1,0.8,0.1,0.7c0,0.3,0.1,0.4,0.1,0.5
	c0,0.3,0.1,0.4,0.1,0.4c0,0.6,0,0.7,0.1,0.6c0,0,0.1,0.2,0.1,0.4c0,0.2,0.1-0.1,0.1,0.1c0,0,0.1,0.4,0.1,0.5c0,0.3,0.1,0.4,0.1,0.4
	c0.1,0.4,0.1,0.3,0.2,0.3c0.1,0.1,0.1,0.5,0.3,0.7c0.1-0.3,0.2,0.2,0.4-0.1c0.1-0.1,0.3,0.5,0.5,0.1c0.1,0.3,0.2,0.4,0.3,0.5
	c0.1,0,0.2-0.1,0.4-0.2c0.1,0.1,0.2,0.2,0.4,0.2c0.1,0,0.2,0,0.4,0.2c0.1-0.1,0.2,0,0.4-0.1c0.1,0,0.2,0.4,0.4,0.3
	c0.2-0.2,0.5-0.2,0.7,0.1c0.2,0,0.4,0,0.7,0.2c0.2,0,0.4,0.6,0.6,0.2c0.1,0.8,0.9,0.2,1.2,0.5c0.3,0,0.6-0.1,0.9,0.1
	c0.1-0.1,0.3-0.2,0.5-0.3c0.1-0.2,0.3-0.1,0.4,0c0.3-0.1,0.6,0,0.8-0.2c0.2-0.3,0.4-0.3,0.6-0.4c0.1-0.1,0.2,0,0.3-0.1
	c0.1-0.1,0.1-0.2,0.2-0.6c0.1,0,0.1,0,0.2-0.2c0,0.2,0.1-0.3,0.1-0.5c0.1,0.1,0.2-0.3,0.2-0.2c0-0.4,0.1-0.3,0.1-0.6
	c0-0.1,0-0.5,0-0.6c0-0.1,0-0.3,0-0.7c0-0.1,0-0.2,0-0.3c0,0,0-0.4,0-0.3v-0.6c0-0.3,0-0.7,0-0.7c0-0.1,0-0.4,0-0.6c0,0,0-0.2,0-0.5
	c0,0.1,0-0.4,0-0.6c0-0.3,0-0.6,0-0.6c0-0.5,0-0.6,0-0.7c0-0.1,0-0.2,0-0.3c0-2.3-0.1-4.7-0.2-7c-0.2-6.9-0.8-13.7-0.9-20.6
	c0-4.4,0.3-8.8,0.6-13.2c0.1-2.6,0.6-5.1,0.8-7.7c0.1-1.3-0.4-2.5-1.4-3.6c-0.5-0.6-1.2-1.1-2-1.6c-0.2-0.1-0.4-0.2-0.5-0.4
	c-0.2-0.1-0.3-0.3-0.5-0.4c-0.3-0.1-0.3-0.2-0.4-0.4c-0.1-0.1-0.5-0.2-0.6-0.3c-0.3-0.1-0.4-0.3-0.7-0.6c0-0.1-0.1,0-0.3,0
	c-0.1,0.1-0.4,0-0.6,0c-0.3,0.2-0.4,0.2-0.4,0.2c-0.2,0.3-0.2,0-0.5,0.1c-0.1,0.2-0.3,0.1-0.5,0.3c0.1-0.2-0.1,0-0.3,0.2
	c-0.2,0.1-0.3-0.1-0.4,0.2c0,0.1-0.1,0.3-0.3,0.1c-0.4,0.2-0.5,0.3-0.7,0.4c-0.1,0-0.4,0-0.5,0.1c0,0-0.1,0.1-0.1,0.1
	c-0.5,0.2-0.7,0.4-0.5,0.4c-0.4,0.3-0.3,0.3-0.2,0.4c-0.5,0.4-0.5,0.5-0.5,0.7c-0.1,0.3,0,0.4-0.2,0.7c0.2,0.1,0.1,0.4,0,0.6
	c0,0.2-0.1,0.5,0,0.7c0,0.3-0.2,0.6,0.2,0.6c-0.2,0.2-0.2,0.3-0.1,0.4c-0.1,0.2-0.1,0.3-0.2,0.5c0,0.2,0,0.5-0.2,0.8
	c0,0.2,0.2,0.3,0.1,0.6c0,0.3-0.1,0.6,0,0.6c-0.1,0.2-0.1,0.3-0.1,0.5c0,0.1,0,0.3-0.1,0.4c0,0.2,0,0.5-0.1,0.7
	c-0.2,2.4-0.5,4.8-0.7,7.2c-0.3,3.9-0.2,7.7-0.2,11.6c0,3,0.4,5.9,0.6,8.8C315.6,340.5,316,345.2,315.9,349.9 M438.6,367.8
	c0.1-0.3,0.2-0.5,0.3-1c0.1-0.3,0.2-0.5,0.2-1c0.1-0.2,0.2-0.3,0.2-0.8c0-0.3,0-0.3,0-0.6c0-0.1,0-0.3,0-0.7c0-0.3,0.1-0.6,0.1-0.7
	c0-0.4,0-0.8,0.1-0.8c-0.1-0.3-0.1-0.6-0.1-0.7c0-0.2,0-0.4,0-0.5c0-0.1,0-0.4,0-0.4c0-0.2-0.1-0.5-0.1-0.7c0-0.1,0-0.6,0-1
	c0-0.3-0.1-0.7,0-0.8c0-0.2,0-0.4-0.1-0.6c0-0.1,0-0.4-0.1-0.7c0.1,0,0-0.4-0.1-1c0.1,0.1,0-0.5,0-0.7c-0.1-0.4-0.1-0.6,0-0.8
	c-0.1-0.5,0-0.5-0.2-1.2c0.1,0,0-0.5,0-0.7c-0.1-0.4,0-0.5-0.1-0.9c0-0.2,0-0.5,0-0.7c-0.1-0.4-0.1-0.8-0.1-1c0-0.3-0.1-0.7-0.1-1
	c0-0.1,0-0.5-0.1-1.1c0-0.1,0-0.3,0-0.6c0-0.2-0.1-0.6-0.1-1c0-0.4-0.1-0.6-0.1-1.1c0.1,0,0-0.5,0-0.7c0-0.3-0.1-0.7-0.1-1.1
	c0-0.1,0-0.5,0-0.6c-0.1-0.5,0-0.5,0-1c0-0.1,0-0.6,0-0.8c0-0.4,0-0.6,0-1c0-0.3,0.1-0.4,0.1-0.7c0-0.3,0-0.6,0-0.9
	c0-0.6,0-1.1,0-1.7l0.1-0.2c0-0.1-0.1-0.7-0.2-1.1c0-0.2,0.1,0.5,0.1,0.1c-0.1-0.8,0.1,0,0.1-0.4c0.1,0.2-0.1-1.1,0-0.8
	c0-0.4-0.1-0.9,0.1-0.4c-0.2-1.1-0.2-1.6,0-0.8c-0.2-1.1,0-0.5,0-0.6c0-0.4-0.2-1.4-0.1-1c-0.1-0.7,0,0,0.1,0
	c-0.2-1.1-0.1-0.8-0.1-0.6c-0.2-1.3,0-0.4-0.3-1.9c0.3,1.1,0.1,0.2,0.1-0.2c0.2,0.7,0-0.5,0.1-0.1c-0.1-0.5,0-0.4,0-0.4
	c-0.2-0.9-0.2-2.1,0-1.1c-0.4-1.9-0.1-0.7-0.2-1.6c0.2,0.6,0-0.4,0-0.6c0.2,0.6,0-0.6,0.2,0.4c-0.4-1.9-0.2-1.3-0.1-1.1
	c-0.1-0.8,0-0.2-0.1-1c0.1,0.2,0-0.4,0-0.2c-0.2-0.9-0.2-1.1-0.1-0.9c-0.1-0.4-0.1-0.9-0.1-0.8c0-0.1,0-0.3-0.1-0.6
	c0-0.3-0.1-0.6-0.1-0.9c0-0.2,0-0.5,0-0.8c0-0.1,0-0.4,0-0.7c0-0.2,0-0.4,0-0.6c0-0.2,0-0.4,0-0.6c0-0.2,0-0.4,0.1-0.4
	c-0.1-0.7-0.1-0.9,0-0.7c0-0.4,0-0.5,0.1-0.3c0-0.3-0.1-0.7,0-0.5c0-0.1-0.1-0.6,0-0.4c0-0.2,0,0,0-0.3c0,0.1,0-0.4,0-0.4
	c-0.1-0.3,0-0.3-0.1-0.7c-0.1-0.4-0.2-0.9-0.1-0.4c-0.3-1.1-0.1-0.5-0.2-0.8c0,0.1,0-0.2,0-0.1c0,0,0-0.2-0.1-0.7
	c0-0.2,0.1,0.2,0-0.2c0,0,0-0.4,0-0.8c0-0.2,0,0.1,0,0c-0.1-0.5-0.1-0.9,0-0.4c0-0.3,0-0.4,0-0.3c-0.1-0.5,0-0.3-0.1-0.8
	c0.1-0.1,0-0.7,0.1-0.9c0.1,0.1,0-0.3,0.1-0.3c0.1,0.2,0.1,0.1,0.1-0.2c0.1,0,0-0.6,0.3,0c0-0.2-0.1-0.8-0.1-0.9c0-0.1,0.1,0,0-0.6
	c0.2,0.2,0.3,0.2,0.2-0.7c0.2,0.5,0.2,0,0.2-0.3c0,0,0-0.3,0.1,0c0-0.2,0-0.6,0-0.5c0-0.3,0.1-0.3,0-0.5c0-0.4-0.2-0.8-0.1-0.8
	c-0.1-0.3-0.1-0.3-0.1-0.3c0-0.1,0-0.2-0.2-0.7c0.1,0.3,0-0.1-0.1-0.4c0-0.1-0.1-0.4-0.2-0.5c0-0.1-0.2-0.4-0.3-0.6
	c-0.1-0.2-0.2-0.3-0.4-0.5c-0.2-0.3-0.4-0.6-0.4-0.5c-0.1-0.1-0.2-0.2-0.3-0.3c-0.1-0.1-0.2-0.2-0.3-0.4c-0.2-0.2-0.3-0.2-0.5-0.3
	c-0.2-0.1-0.4-0.4-0.6-0.5c-0.2-0.2-0.4-0.2-0.6-0.3c-0.2-0.2-0.4-0.3-0.6-0.3c-0.2-0.1-0.4-0.2-0.6-0.3c-1-0.5-2-1-2.9-1.7
	c-0.6-0.4-1.4-0.4-2.1-0.1c-1,0.3-2,0.6-2.9,1c-1.7,0.7-3.1,1.6-3.3,3.3c-0.2,2.5-0.5,4.9-0.6,7.4c-0.2,5.1,0.6,10.2,0.6,15.4
	c0,1,0.4,1.8,0.3,2.8c-0.3,3,0.4,6,0.1,9c-0.2,1.9,0.5,3.9,0.1,5.8c-0.5,2.5-0.1,5,0.3,7.4c0.1,0.7,0.2,1.3,0.3,2
	c0,0.3,0.1,0.6,0.1,0.9c0.1,0.4,0.1,0.7,0.1,0.9c0.1,0.5,0.1,0.9,0.2,1.2c0,0.2,0,0.5,0.1,0.8c0.1,0.4,0.1,0.7,0.1,1
	c0,0.2,0.1,0.6,0.1,0.9c0.1,0.5,0.1,0.6,0.1,1c0,0.3,0.1,0.6,0.1,0.8c0,0.3,0,0.5,0,0.8c0,0.2,0,0.4,0,0.8c0,0.4,0,0.3,0.1,0.8
	c0,0.1,0,0.4,0,0.6c0,0.1,0.1,0.5,0.2,0.7c0,0.1,0,0.3,0.1,0.6c0.1,0.3,0.1,0.3,0.1,0.5c-0.1-0.1,0,0.1,0.1,0.6c0,0,0,0.3,0.1,0.4
	c0,0.1,0.1,0.5,0.2,0.9c0-0.2,0,0.2,0.1,0.4c0,0.1,0.1,0.2,0.1,0.5c0,0.1,0.1,0.4,0.1,0.5c0.1,0.3,0.1,0.3,0.2,0.7
	c0.1,0.1,0.1,0.2,0.2,0.4c0.1,0.4,0.1,0.4,0.2,0.6c0.1,0.2,0.1,0.5,0.2,0.4c0.1,0.3,0.1,0.6,0.2,0.8c0.1-0.1,0.1,0.2,0.2,0.1
	c0.1,0.5,0.2,0.3,0.3,0.6c0.1-0.1,0.2,0.1,0.4,0.5c0.1,0.1,0.3,0.1,0.5,0c0.2,0,0.4,0.3,0.6,0.2c0.2-0.1,0.5,0.1,0.7-0.1
	c0.2,0.2,0.5,0,0.7,0.1c0.2,0.3,0.5,0,0.7-0.1c0.2,0.4,0.5,0.4,0.7,0.3c0.2-0.1,0.5,0.3,0.7,0.1c0.2,0.3,1.2,0,1.4,0.5
	c0.2-0.1,0.5-0.1,0.7-0.2c0.2,0.2,0.5,0,0.7,0.1c0.3-0.5,1.2-0.1,1.5,0.4c0.1-0.3,0.3-0.5,0.4-0.4c0.1,0.2,0.6-0.3,0.7-0.1
	c0.1,0.2,0.2,0.4,0.3,0.3c0.2-1.1,0.4-0.4,0.6-0.6c0.2-0.4,0.4-0.2,0.5,0.1c0.1-0.8,0.2-0.3,0.2-0.8c0.1,0,0.1-0.2,0.2-0.1
	c0.1,0.1,0.1,0.2,0.2-0.6c0,0.1,0.1-0.2,0.1,0.3c0-0.3,0.1-0.5,0.1-0.7C438.4,368,438.5,367.7,438.6,367.8 M-68.9,205.9
	c4-0.2,8.3-0.3,11.9-0.2c0.5,0,1-0.2,1.3-0.5c0.4-0.4,0.6-0.8,0.6-1.3v-21.3c0-0.9-0.6-1.7-1.5-1.8c-2.3-0.4-4.7-0.6-7.4-0.6
	c-3.1,0-6.2,0.3-9.2,0.5l-0.9,0.1c-10.5,0.8-20.1,4.4-27,10.1c-8.9,7.2-13.6,17.6-14,30.7v15.4h-14.4c-1,0-1.9,0.8-1.9,1.9v16.5
	c0,1,0.8,1.9,1.9,1.9h14.4v105c0,0.5,0.2,1,0.5,1.3c0.3,0.4,0.8,0.5,1.3,0.5h23.8c1,0,1.9-0.8,1.9-1.9V257H-57c1,0,1.9-0.8,1.9-1.9
	v-16.5c0-1-0.8-1.9-1.9-1.9h-30.7v-10C-87.6,214.4-81.3,206.4-68.9,205.9 M251.3,252c10.5,11.7,16,28.4,16,48.3s-5.5,36.6-16,48.3
	c-11,12.4-27.4,18.9-47.3,18.9s-36.3-6.5-47.3-18.9c-10.5-11.7-16-28.4-16-48.3s5.5-36.6,16-48.3c11-12.4,27.4-18.9,47.3-18.9
	S240.2,239.7,251.3,252 M238.9,300.3c0-21.2-6.1-46.5-35-46.5s-35,25.3-35,46.5c0,21.2,6.1,46.5,35,46.5S238.9,321.6,238.9,300.3
	 M125.1,361.6c0,0.1,0,0.3,0,0.4c0,1-0.8,1.9-1.9,1.9H99.4c-1,0-1.8-0.8-1.9-1.7l-0.9-14.1c-8.3,12.8-22.5,19.5-41.4,19.5
	c-17.3,0-31.5-7.5-40.8-21.6c-7.8-11.8-12.1-28-12.1-45.6c0-18,4.8-34.5,13.6-46.3c10.2-13.7,25.2-20.9,43.5-20.9
	c16.3,0,29.5,5.9,37,16.3v-66.9c0-1,0.8-1.9,1.9-1.9h23.8c0.5,0,1,0.2,1.3,0.5c0.4,0.4,0.5,0.8,0.5,1.3v157.7
	c0,5.6,0.4,11.3,0.8,16.8C124.9,358.5,125,360.1,125.1,361.6 M96.6,300.1c0-22.7-8.7-47-33-47c-15.1,0-33,8.2-33,47
	c0,23,8.7,47.5,33,47.5C78.6,347.6,96.6,339.4,96.6,300.1 M-28.9,210.1c8.6,0,15.6-7,15.6-15.6c0-8.6-7-15.6-15.6-15.6
	c-8.6,0-15.6,7-15.6,15.6C-44.4,203.1-37.4,210.1-28.9,210.1 M-15.1,238.6c0-1-0.8-1.9-1.9-1.9h-23.9c-1,0-1.9,0.8-1.9,1.9V362
	c0,1,0.8,1.9,1.9,1.9h23.9c1,0,1.9-0.8,1.9-1.9c0-0.1,0-0.2,0-0.3L-15.1,238.6z M453.5,363.8h1.6v-7.6h2.9v-1.5h-7.4v1.5h2.9V363.8z
	 M459.7,363.8h1.6v-6.5l2.9,4.3h0.1l2.9-4.3v6.6h1.6v-9.1h-1.7l-2.8,4.3l-2.8-4.3h-1.7V363.8z"/>
</svg>
