<svg xmlns="http://www.w3.org/2000/svg" viewBox="0 0 1200 560">
<defs><linearGradient id="g" x1="0" y1="0" x2="1" y2="1">
<stop offset="0" stop-color="#e2f5e9"/><stop offset=".6" stop-color="#a5d9b8"/><stop offset="1" stop-color="#0a7d43"/></linearGradient></defs>
<rect width="1200" height="560" fill="url(#g)"/>
<circle cx="180" cy="480" r="200" fill="#fff" opacity=".1"/>
<rect x="180" y="70" width="500" height="420" rx="22" fill="#fff" opacity=".88" transform="rotate(-2 430 280)"/>
<rect x="220" y="120" width="180" height="15" rx="7" fill="#0d5c36" opacity=".45"/>
<rect x="220" y="152" width="380" height="56" rx="10" fill="#a5d9b8" opacity=".4"/>
<rect x="220" y="228" width="420" height="12" rx="6" fill="#0d5c36" opacity=".18"/>
<rect x="220" y="254" width="360" height="12" rx="6" fill="#0d5c36" opacity=".14"/>
<rect x="220" y="296" width="185" height="110" rx="12" fill="#0a7d43" opacity=".26"/>
<rect x="428" y="296" width="185" height="110" rx="12" fill="#0a7d43" opacity=".18"/>
<rect x="760" y="110" width="240" height="400" rx="26" fill="#fff" opacity=".92" transform="rotate(2.5 880 310)"/>
<rect x="795" y="160" width="130" height="14" rx="7" fill="#0d5c36" opacity=".4"/>
<rect x="795" y="192" width="170" height="90" rx="12" fill="#a5d9b8" opacity=".5"/>
<rect x="795" y="300" width="170" height="11" rx="5" fill="#0d5c36" opacity=".2"/>
<rect x="795" y="326" width="140" height="11" rx="5" fill="#0d5c36" opacity=".15"/>
<rect x="795" y="362" width="170" height="60" rx="10" fill="#0a7d43" opacity=".3"/>
</svg>